<svg width="259" height="215" viewBox="0 0 259 215" fill="none" xmlns="http://www.w3.org/2000/svg">
<g filter="url(#filter0_d_210_2181)">
<path d="M329.595 43.9082C324.779 40.1777 319.519 37.1959 313.435 35.2822C312.81 35.0635 312.231 34.8137 311.606 34.5949C310.438 34.1669 309.337 33.5648 308.17 33.3918C308.055 33.3418 307.928 33.3633 307.812 33.3134C305.247 32.8673 302.978 31.8373 300.606 30.9407C298.858 30.2629 297.135 29.697 295.174 29.8677C294.84 29.9013 294.468 29.6395 294.11 29.5611C293.175 29.488 292.353 29.2098 291.543 28.8601C291.427 28.8102 291.346 28.8007 291.277 28.7197C290.06 28.0677 288.881 27.7111 287.357 27.7147C285.961 27.6967 284.276 27.6813 283.012 26.8053C281.591 26.6753 280.228 26.4429 278.931 25.7814C278.317 25.4911 277.543 25.4369 276.816 25.3517C276.573 25.3233 276.365 25.3353 276.169 25.2759C274.633 25.096 273.12 25.028 271.641 24.7456C268.556 24.2022 265.471 23.6589 262.362 23.0036C261.761 22.8968 261.215 22.4325 260.648 22.1112C258.856 23.3208 256.967 22.2261 255.155 22.2322C255.096 22.0797 255.083 21.8962 254.979 21.7748C254.723 21.5629 254.457 21.4225 254.191 21.2821L254.007 21.4062C254.216 21.6491 254.472 21.861 254.646 22.0634C251.956 21.8939 249.301 21.7648 246.611 21.5953C246.322 21.5979 246.034 21.6005 245.745 21.6031C243.665 21.2139 241.62 20.8651 239.488 21.3434C235.885 20.9577 232.265 21.4799 228.616 21.1252C227.68 21.0521 226.745 20.9789 225.813 21.4157C225.284 21.6449 224.464 21.6217 223.875 21.4434C222.892 21.1463 222.05 21.2661 221.105 21.5194C220.415 21.7296 219.573 21.8494 218.845 21.7641C217.193 21.5343 215.615 21.8953 214.071 22.2968C213.426 22.476 212.757 22.5433 212.089 22.6105C210.843 22.6829 209.597 22.7553 208.316 22.7873C208.2 22.7374 208.004 22.6779 207.864 22.516C205.656 20.292 206.468 19.2953 208.153 17.7093C209.116 16.8031 210.38 16.0777 211.599 15.3833C213.358 14.3883 215.245 13.6267 217.049 12.6006C217.636 12.269 218.606 12.3826 219.227 12.0914C220.469 11.509 221.97 11.6485 223.2 10.8826C224.246 10.2408 225.734 10.1968 227.013 9.90986C227.728 9.81162 228.443 9.71337 229.122 9.57464C229.304 9.1956 229.429 8.9191 229.657 8.50905C230.236 8.75882 230.758 9.11108 231.37 9.14636C232.098 9.2316 232.869 9.03085 233.619 8.97309C234.288 8.90585 234.922 8.79815 235.556 8.69042C236.673 8.38455 237.566 7.39734 238.919 7.70132C239 7.71079 239.275 7.5247 239.332 7.4222C239.569 6.68567 240.238 6.61845 240.966 6.70369C242.629 6.86207 244.389 6.12203 245.957 7.43383C245.986 6.70939 246.03 6.42341 246.016 5.98495C248.107 6.30268 250.227 5.89597 252.004 7.45069C252.471 6.55911 252.756 6.04655 253.006 5.49351C254.194 5.52359 255.233 5.46323 256.39 5.96277C257.906 6.54068 259.516 7.31152 261.322 6.54046C261.587 6.42587 262.234 6.50163 262.408 6.70405C263.222 7.56369 264.409 7.33878 265.484 7.57386C266.756 7.86838 268.149 7.37643 269.262 8.16197C269.413 8.25241 269.839 8.15678 270.069 8.00171C270.62 7.62953 271.221 7.73632 271.662 8.07914C272.334 8.52185 272.902 8.84313 273.753 8.39687C273.972 8.31329 274.378 8.61563 274.736 8.69398C275.245 8.86278 275.848 9.22452 276.309 9.16937C278.027 8.97027 279.486 9.65071 281.046 9.94262C281.323 10.0115 281.59 10.1519 281.878 10.1493C286.022 10.2343 289.978 11.5348 294.087 11.5793C294.537 11.5957 295.022 11.6525 295.496 11.7808C297.762 12.3009 300.062 12.8616 302.328 13.3817C305.148 14.0396 308.004 14.7381 310.767 15.4985C313.612 16.2684 316.331 17.3149 319.051 18.3613C322.858 19.8263 326.641 21.1793 330.175 23.0854C331.808 23.9682 333.396 24.8821 334.525 26.361C335.108 27.1208 335.817 27.8589 337.166 27.653C337.313 27.2335 337.46 26.8139 337.561 26.4255C338.023 24.769 338.241 23.084 338.46 21.3991C338.538 20.8986 338.534 20.3887 338.404 19.9003C338.225 19.1879 337.794 18.5186 337.016 17.9544C336.831 17.8235 336.61 17.6521 336.379 17.5522C332.324 15.2939 328.292 13.1475 323.895 11.5042C323.039 11.1855 322.218 10.9074 321.397 10.6292C318.967 9.83512 316.584 9.01006 314.109 8.24701C312.698 7.79056 311.162 7.61062 309.716 7.11369C308.305 6.65723 306.801 6.26279 305.322 5.98034C304.721 5.87355 304.167 5.73577 303.601 5.66948C301.37 5.18982 299.15 4.63867 296.919 4.15901C293.73 3.49421 290.575 2.86989 287.363 2.34807C283.666 1.76944 279.957 1.26231 276.273 0.867165C274.09 0.611453 271.874 0.57025 269.669 0.457539C267.753 0.342233 265.801 0.18646 263.908 0.183128C261.323 0.135061 258.681 0.189491 256.119 0.253398C255.461 0.249129 254.805 0.499834 254.16 0.679049C252.986 1.08744 251.775 1.20035 250.527 1.0178C248.151 1.21264 245.764 1.47897 243.388 1.6738C243.054 1.70742 242.58 1.57909 242.325 1.36719C241.094 0.276741 239.862 0.787627 238.631 1.29851C238.321 1.44411 237.964 1.62073 237.642 1.83781C236.735 2.38659 235.733 2.74242 234.645 2.32385C234.101 2.11455 233.769 2.40315 233.297 2.5298C233.032 2.64437 232.501 2.61857 232.234 2.47819C231.736 2.2379 231.283 1.71159 230.696 2.04326C230.248 2.28191 230.044 2.80395 229.689 3.23553C228.333 2.4216 226.869 2.57759 225.825 3.47438C224.976 4.17561 224.145 4.2239 223.221 4.07924C221.938 3.85623 220.761 3.75467 219.776 4.80392C219.226 5.43105 218.359 5.18387 217.62 5.17014C216.35 5.1306 215.115 5.13154 214.246 6.23074C213.994 6.52881 213.441 6.646 213.004 6.81314C211.289 7.52219 209.354 8.05982 207.849 9.01175C204.85 10.8442 201.91 12.829 201.127 16.304C200.937 17.2645 200.551 18.1655 200.755 19.2448C201.186 21.5155 199.812 22.9558 197.232 23.6727C195.504 24.1982 193.836 24.8763 192.026 25.1374C191.772 25.1805 191.394 25.5001 191.418 25.6121C191.691 26.7724 190.328 26.5399 189.916 27.074C189.39 27.8131 188.593 27.6469 187.878 27.7451C187.117 27.8744 186.357 28.0036 185.596 28.1329C185.215 28.1975 184.8 28.2217 184.49 28.3673C182.926 29.1667 181.386 30.0782 179.857 30.9182C179.454 31.1258 179.054 31.5884 178.684 31.5815C177.53 31.5919 177.051 32.3 176.49 32.9987C175.976 33.6663 175.343 34.029 174.305 34.0894C173.094 34.2023 172.234 34.975 171.721 35.8976C171.027 37.1992 170.03 38.32 169.139 39.5622C168.11 40.8974 167.244 42.5066 167.303 44.2604C167.321 46.8102 167.339 49.3599 167.403 51.8787C166.785 52.6798 165.876 52.9736 164.966 53.2674C157.827 55.5247 151.224 58.5728 144.798 62.0783C141.383 63.9348 138.91 66.6294 136.39 69.3551C134.352 71.6276 133.989 74.242 133.581 76.8874C133.478 77.0209 133.432 77.0519 133.375 77.1544C131.782 78.6783 129.757 79.533 127.686 80.4186C125.051 81.493 122.52 82.6888 120.188 84.1989C119.637 84.5711 119.027 84.7908 118.406 85.082C117.382 85.5808 116.044 85.7153 115.754 87.0643C115.675 87.3098 115.261 87.5889 114.916 87.694C113.626 88.0524 113.043 88.894 112.924 89.9355C112.791 90.7935 112.299 91.3181 111.563 91.8143C108.923 93.7251 107.822 96.3257 107.588 99.1735C107.426 100.756 106.441 101.805 105.41 102.885C103.545 103.504 101.819 104.285 99.9282 104.536C97.2766 104.917 95.1743 106.272 92.7909 107.049C90.3964 107.896 88.1434 109.161 85.9474 110.323C83.7054 111.516 81.5792 112.76 79.4071 114.034C78.8668 114.334 78.4202 114.828 77.9497 115.21C77.1356 115.951 76.4023 116.702 75.6231 117.485C75.3823 117.711 75.0148 117.959 74.9247 118.276C74.2335 120.088 72.8258 121.743 72.6785 123.764C72.603 124.519 72.2042 125.237 71.967 125.973C70.5852 126.394 70.3185 127.855 68.8337 128.409C65.8292 129.476 62.8026 130.687 60.0442 132.292C59.1823 132.81 58.2855 133.287 57.4126 133.877C55.8046 134.962 54.1966 136.048 52.6235 137.174C52.1641 137.484 51.7745 137.875 51.4657 138.275C48.0914 142.539 46.1044 147.146 46.6953 152.384C46.855 153.749 46.8879 155.136 45.7668 156.533C44.4878 156.82 42.9093 157.181 41.3308 157.542C40.8586 157.669 40.1548 157.696 40.0298 157.972C39.4159 159.283 38.3869 159.017 37.198 158.987C35.513 158.972 33.7581 158.875 32.4404 160.213C32.1537 160.471 31.6006 160.588 31.1743 160.683C28.5465 161.176 26.0363 161.974 23.6915 163.301C21.9328 164.296 19.8949 164.967 18.1601 166.074C14.6445 168.319 11.3844 170.776 9.43611 174.333C9.15122 174.846 8.66972 175.299 8.30398 175.802C5.01412 180.584 4.12772 185.794 4.92814 191.274C5.01259 191.794 5.18893 192.251 5.19254 192.761C5.32408 198.309 8.79099 202.245 13.0977 205.807C13.7941 206.361 14.5915 206.528 15.4773 206.122C16.466 205.583 17.4087 205.074 18.4433 204.504C18.3902 203.515 18.1643 202.579 18.2967 201.721C18.3942 200.822 19.6016 200.199 19.2471 199.03C16.4689 197.831 14.1244 195.955 11.9288 193.914C9.5936 191.712 9.02246 189.279 10.0409 186.414C10.7651 184.388 11.6051 182.412 12.9891 180.645C14.327 178.909 15.9094 177.457 17.7471 176.216C20.1012 174.563 22.5839 173.143 25.0997 171.509C25.052 171.285 25.0263 170.918 24.9768 170.439C31.9801 166.929 39.654 165.207 47.46 164.229C47.9248 164.684 48.25 164.977 48.5991 165.381C48.9335 165.348 49.3488 165.324 49.6833 165.29C50.6517 165.149 51.4032 165.346 51.9047 166.096C52.2777 166.613 52.7187 166.956 53.3783 167.215C54.4661 167.634 55.5538 168.052 56.4946 168.89C57.2497 169.597 58.7178 169.951 59.8957 170.053C61.408 170.121 62.7034 170.527 63.9087 171.251C64.6271 171.663 65.3676 171.931 66.325 171.861C67.1556 171.813 68.0688 172.029 68.8553 172.267C69.6417 172.505 70.2775 172.652 70.9776 172.115C71.2074 171.96 71.7035 171.946 72.0728 171.952C75.8728 172.397 79.7372 172.159 83.5446 172.022C84.0408 172.008 84.491 172.024 84.9761 172.081C87.5651 172.639 90.0807 172.606 92.5431 171.584C93.2911 171.271 93.6512 171.605 93.6712 172.808C94.6432 173.177 95.6466 173.076 96.6591 172.649C97.2343 172.388 97.8554 172.097 98.4655 171.877C98.291 171.675 98.1513 171.513 97.9309 171.342C98.2065 171.156 98.4473 170.929 98.7468 170.855C99.0812 170.821 99.4396 170.9 99.8089 170.907C100.851 171.356 101.667 170.869 102.448 170.342C103.183 169.846 103.12 169.184 103.104 168.49C103.075 167.613 103.034 166.808 103.005 165.931C102.886 163.77 102.076 161.819 100.702 160.056C100.294 159.499 99.6102 159.128 98.9616 158.797C96.437 157.555 93.6734 156.795 90.8198 156.351C88.3704 155.955 85.8989 155.702 83.4275 155.449C82.6998 155.364 81.939 155.493 81.2003 155.479C80.6234 155.484 80.0353 155.561 79.4804 155.423C78.1629 155.16 76.8583 155.08 75.5205 155.214C75.0593 155.269 74.5172 155.315 74.0891 155.156C72.3876 154.447 70.8789 154.889 69.5687 155.645C66.4358 154.878 63.3781 154.957 60.392 155.371C58.8356 155.589 57.3233 155.521 55.8569 155.422C54.3906 155.323 53.4132 154.19 52.6324 153.116C52.0959 152.325 52.3551 151.445 52.765 150.656C53.7557 148.771 54.932 147.016 56.6999 145.694C58.273 144.568 59.9159 143.523 61.6157 142.376C61.4045 141.878 61.2631 141.461 61.0518 140.963C61.5002 140.725 62.1544 140.219 62.4209 140.359C64.0194 141.202 65.0725 139.978 66.3864 139.732C66.5591 139.679 66.8219 139.31 66.8091 139.126C66.7945 138.688 66.6641 138.199 67.1823 138.042C67.6196 137.875 68.1047 137.931 68.566 137.876C69.4076 137.757 70.2382 137.708 71.1257 137.557C72.3128 137.333 73.3638 137.456 74.2476 138.396C74.2678 137.998 74.266 137.743 74.3194 137.131C75.2601 137.969 76.0722 138.574 76.6197 139.293C76.888 139.688 76.581 140.344 76.5056 141.099C77.7476 142.118 79.2432 143.094 80.9116 144.017C82.3484 144.841 83.7283 145.767 85.1082 146.693C86.7434 147.83 88.5625 148.844 90.7454 149.1C91.8773 149.232 92.9302 149.611 94.029 149.958C96.539 150.761 98.935 151.77 101.638 152.123C102.527 152.227 103.385 152.801 104.161 153.11C105.002 152.99 105.866 152.727 106.675 152.822C109.354 153.063 112.011 153.447 114.679 153.759C116.492 154.008 118.317 154.186 119.984 153.253C120.26 153.066 120.71 153.083 121.125 153.059C123.029 152.991 124.921 152.994 126.86 152.966C127.726 152.958 128.168 153.556 128.76 153.989C129.247 154.301 129.859 154.336 130.201 153.721C130.303 153.588 130.337 153.373 130.44 153.24C130.542 153.106 130.807 152.992 130.923 153.042C132.369 153.539 133.235 151.929 134.714 152.212C136.794 152.601 138.646 151.799 140.408 151.314C141.002 150.401 139.699 150.576 139.924 149.656C140.749 148.843 141.5 147.438 143.658 147.327C143.689 148.459 142.248 148.727 141.989 149.607C142.419 150.021 142.878 149.711 143.235 149.534C143.764 149.305 144.224 148.995 144.567 148.635C146.673 146.188 147.751 143.476 147.406 140.378C147.33 139.532 147.29 138.727 147.376 137.9C147.481 136.42 147.101 134.883 147.044 133.384C146.984 131.375 146.005 129.987 143.796 129.364C143.6 129.305 143.495 129.183 143.355 129.022C143.285 128.941 143.296 128.869 143.227 128.788C143.442 128.195 143.975 128.475 144.379 128.523C145.592 128.665 146.828 128.919 148.087 129.03C148.537 129.046 149.009 128.919 149.471 128.864C149.443 128.242 149.719 128.056 150.389 128.244C151.334 127.991 152.223 128.095 153.08 128.414C152.148 128.85 151.235 128.634 150.378 128.316C150.057 128.533 149.781 128.719 149.46 128.936C149.89 129.35 150.239 129.755 151.034 129.666C152.118 129.575 153.192 129.555 154.276 129.464C153.996 129.14 153.717 128.816 153.438 128.492C154.039 128.599 154.594 128.737 155.195 128.843C154.919 129.029 154.632 129.287 154.357 129.473C154.832 129.856 155.375 129.811 155.893 129.653C155.683 129.41 155.439 129.127 155.275 128.853C155.704 129.012 156.005 129.193 155.939 129.622C156.415 130.005 156.981 130.072 157.556 129.811C159.658 130.058 161.652 129.672 163.702 129.185C164.428 129.015 165.2 128.814 165.928 128.899C168.445 129.122 170.869 129.151 173.287 128.415C174.923 127.951 176.7 127.905 178.394 127.594C179.535 127.4 180.606 127.125 181.222 126.069C181.553 125.525 182.187 125.418 182.971 125.4C186.617 125.245 188.42 123.964 189.38 120.946C190.08 118.808 190.295 116.613 190.349 114.4C190.369 114.002 190.147 113.575 190.086 113.168C190.002 112.648 189.721 112.07 189.903 111.691C190.46 110.482 189.932 109.365 189.866 108.192C189.742 106.868 188.928 106.008 187.803 105.294C186.679 104.58 185.37 103.99 184.154 103.338C185.813 102.986 185.813 102.986 187.12 103.321C188.507 103.666 189.849 104.041 191.236 104.386C191.987 104.583 192.669 104.699 193.345 104.051C193.632 103.793 194.417 103.776 194.948 103.802C195.883 103.875 196.842 104.06 197.812 104.173C199.995 104.429 202.189 104.613 204.404 104.4C205.199 104.311 206.102 104.598 206.91 104.693C207.88 104.807 208.83 105.318 209.876 104.677C210.197 104.46 210.798 104.566 211.283 104.623C214.17 104.852 217.055 104.826 219.903 104.505C222.244 104.269 224.536 103.555 227.007 103.808C227.816 103.903 228.691 103.569 229.519 103.265C230.613 102.847 231.614 102.492 232.838 102.562C233.127 102.56 233.496 102.566 233.68 102.442C235.218 101.276 237.261 101.37 239.035 100.813C241.107 100.182 243.079 99.9402 245.218 100.482C246.085 100.729 247.078 100.7 247.954 100.62C248.323 100.627 248.759 100.205 248.976 99.8666C249.353 99.2921 249.873 99.3893 250.426 99.2722C250.852 99.1765 251.311 98.8664 251.482 98.5589C251.767 98.0463 251.902 97.4433 252.071 96.8808C252.665 94.3663 253.132 91.8734 253.114 89.3236C253.134 88.9257 253.2 88.4967 253.288 87.9247C254.685 87.9427 255.929 87.6153 257.021 86.9425C257.791 86.4867 258.621 86.4384 259.522 86.4711C261.23 86.5985 262.915 86.6139 264.645 86.3433C265.786 86.1494 267.081 86.5559 268.178 86.648C269.722 86.2465 271.15 85.7951 272.267 85.4892C273.226 85.6743 272.366 86.4471 273.231 86.4392C273.854 86.403 274.558 86.3763 274.646 85.8043C274.733 84.9774 274.843 84.2624 275.683 83.8876C277.041 83.3552 278.456 82.7202 280.04 83.1241C280.237 83.1836 280.409 83.131 280.733 83.1689C281.97 81.8216 282.94 80.3339 283.262 78.5154C283.85 75.236 284.393 71.9876 284.531 68.6919C284.592 67.498 283.508 64.3867 282.624 63.4461C281.776 62.5459 280.846 61.6364 279.905 60.7983C279.65 60.5864 279.303 60.4365 278.909 60.3177C278.4 60.1489 277.708 60.1041 277.302 59.8018C276.42 59.1162 275.595 58.328 274.805 57.5804C275.216 57.0463 275.701 57.1031 276.119 57.3339C277.949 58.2762 280.244 58.0719 282.063 59.0857C282.399 59.307 283.057 59.3113 283.483 59.2156C284.463 59.0028 285.326 58.74 286.059 59.5902C286.199 59.7521 286.822 59.7159 287.156 59.6823C287.664 59.5961 288.25 59.2645 288.735 59.3213C289.624 59.4254 290.468 59.5606 291.357 59.6648C292.12 59.7905 292.801 59.9068 293.518 60.0635C293.957 60.1513 294.26 60.5872 294.701 60.93C295.528 60.3718 296.438 60.0779 297.582 60.394C298.496 60.6102 299.488 60.5808 300.423 60.654C300.908 60.7108 301.427 60.5531 301.855 60.7125C304.179 61.3851 306.612 61.0877 308.944 61.1789C310.375 61.2374 311.805 61.0409 313.213 60.9874C313.709 60.9727 314.227 60.8151 314.62 60.9339C315.881 61.2999 317.114 61.044 318.301 60.8191C321.678 60.2684 325.102 59.6868 328.044 57.9569C329.262 57.2625 330.087 56.4493 330.321 55.2028C330.599 53.6704 331.003 52.1164 331.235 50.615C331.334 49.9715 331.399 49.2875 331.417 48.6346C331.415 48.3796 331.413 48.1246 331.366 47.9007C331.678 46.4087 330.999 44.9461 329.595 43.9082ZM235.194 8.1021C235.229 8.14259 235.345 8.19255 235.38 8.23303C235.438 8.38549 235.462 8.49748 235.475 8.68096C235.324 8.59052 235.209 8.54056 235.104 8.41911C235.069 8.37862 235.172 8.2451 235.194 8.1021ZM226.837 9.45247C226.871 9.49295 226.998 9.47139 226.987 9.5429C227.011 9.65487 227 9.72638 226.978 9.86938C226.965 9.68589 226.895 9.60493 226.837 9.45247ZM22.1907 173.025C21.8231 173.273 21.4097 173.552 20.9502 173.862C20.8786 173.526 20.7849 173.333 20.8419 173.23C21.0698 172.82 21.4374 172.572 21.9114 172.701C22.0272 172.751 22.1907 173.025 22.1907 173.025ZM37.7741 165.387C37.5316 165.359 37.2541 165.29 37.0226 165.19C36.9877 165.15 37.0557 164.975 37.0888 164.761C37.3663 164.83 37.6088 164.858 37.8403 164.958C37.9101 165.039 37.7962 165.244 37.7741 165.387ZM85.4199 164.672C84.7639 164.923 84.209 164.785 83.6412 164.463C84.7585 164.158 84.7934 164.198 85.4199 164.672ZM78.3051 163.838C78.2702 163.798 78.3731 163.664 78.419 163.633C78.7645 163.528 79.2019 163.361 79.4793 163.43C80.7509 163.725 82.0114 164.091 83.3178 164.426C81.8753 164.439 80.4788 164.421 79.0014 164.393C78.8397 164.374 78.5972 164.346 78.4465 164.255C78.3767 164.174 78.329 163.95 78.3051 163.838ZM76.4437 163.366C76.4437 163.366 76.6403 163.425 76.5025 163.518L76.4437 163.366ZM78.9988 170.544C79.1604 170.562 79.3221 170.581 79.4728 170.672C79.4728 170.672 79.4507 170.815 79.4397 170.886C79.278 170.867 79.1163 170.848 78.9656 170.758C78.9307 170.718 78.9877 170.615 78.9988 170.544ZM134.846 139.89C134.006 140.264 133.155 140.711 132.292 140.973C129.77 141.843 127.236 142.528 124.473 141.768C124.034 141.68 123.503 141.654 123.076 141.75C121.994 142.096 121.024 141.983 119.949 141.748C119.394 141.61 118.817 141.615 118.205 141.58C113.288 141.441 108.435 140.617 103.707 139.518C100.135 138.662 96.3459 138.146 93.2499 136.073C92.8439 135.77 92.1511 135.726 91.6422 135.557C90.0215 134.857 88.287 134.363 86.3963 133.013C89.761 132.279 92.5743 131.917 95.4354 131.779C97.1774 131.692 98.9084 131.677 100.628 131.732C102.672 131.826 104.68 131.88 106.644 132.219C108.689 132.568 110.724 132.988 112.879 132.622C113.721 132.502 114.717 132.982 115.619 133.27C116.047 133.429 116.418 133.691 116.916 133.931C118.02 133.442 119.07 133.31 120.26 133.595C123.81 134.593 127.45 135.275 130.967 136.487C131.87 136.775 132.783 136.991 133.674 137.35C134.82 137.921 135.403 138.681 134.846 139.89ZM88.4401 129.904C88.4971 129.802 88.6 129.668 88.657 129.566C88.7727 129.616 88.9693 129.675 89.0851 129.725C88.9473 129.818 88.8444 129.952 88.6716 130.004C88.6367 129.964 88.521 129.914 88.4401 129.904ZM102.097 128.884C102.224 128.862 102.396 128.81 102.523 128.788L102.663 128.95C102.536 128.972 102.363 129.024 102.237 129.046C102.237 129.046 102.167 128.965 102.097 128.884ZM121.691 123.791C119.606 124.238 117.972 123.355 116.136 123.249C115.767 123.242 115.328 123.155 114.983 123.26C113.751 123.771 112.434 123.507 111.313 123.303C110.03 123.08 108.783 122.897 107.619 123.234C105.512 123.824 103.478 123.404 101.434 123.31C100.003 123.252 98.5824 123.122 97.1289 123.207C94.9257 123.349 92.7463 123.603 90.567 123.857C90.2325 123.891 90.0157 124.229 89.7749 124.456C89.6371 124.549 89.4772 124.785 89.3963 124.776C88.0899 124.441 86.9652 125.328 85.7635 125.114C84.2732 124.903 82.9134 125.181 81.4838 125.377C81.1493 125.411 80.78 125.404 80.2949 125.347C80.5174 124.172 81.4252 123.624 82.2522 123.065C85.7328 120.78 89.3531 118.656 93.394 117.273C96.6062 116.194 99.8533 115.155 103.007 113.923C104.583 113.307 106.07 113.008 107.792 113.319C108.859 114.135 110.18 114.909 110.663 116.312C110.757 116.505 110.967 116.748 111.198 116.848C114.165 118.687 117.488 120.096 120.821 121.432C121.249 121.592 121.745 121.577 122.195 121.593C124.435 121.746 125.014 121.996 127.393 123.913C125.431 123.828 123.443 123.377 121.691 123.791ZM247.266 22.9459C247.625 23.0243 247.983 23.1027 248.341 23.181C248.238 23.3145 248.24 23.5695 248.159 23.56C247.825 23.5937 247.467 23.5153 247.097 23.5084C247.141 23.2224 247.232 22.9054 247.266 22.9459ZM250.761 25.9029C250.796 25.9434 250.739 26.0459 250.728 26.1174C250.601 26.1389 250.382 26.2225 250.267 26.1726C250.035 26.0726 249.861 25.8702 249.675 25.7393C249.778 25.6058 249.973 25.4102 249.973 25.4102C250.239 25.5506 250.46 25.722 250.761 25.9029ZM235.216 22.6262L235.102 22.8313L234.962 22.6693L235.216 22.6262ZM173.442 44.2152C174.837 42.3769 176.383 40.629 178.369 39.2239C179.988 38.067 181.747 37.0719 183.517 36.0054C183.746 35.8503 184.035 35.8477 184.299 35.7331C187.258 34.6967 190.136 33.6508 193.013 32.6048C193.102 32.0329 193.203 31.6444 193.326 31.1129C194.689 31.3454 196.112 31.7303 197.049 30.4571C197.152 30.3236 197.567 30.2994 197.856 30.2968C198.94 30.2054 200 30.0021 201.016 30.0847C202.933 30.2 204.746 30.4489 206.211 31.8942C207.21 32.8848 208.669 33.5652 209.623 34.5867C210.751 35.8107 212.208 36.2362 213.678 36.8451C214.372 37.1448 215.135 37.2705 215.818 37.6417C217.452 38.5246 219.028 39.5099 220.673 40.3213C224.263 42.1248 227.705 44.0929 231.569 45.4554C233.05 45.9928 234.577 46.4992 236.039 47.6896C235.244 47.7784 234.527 47.6217 234.24 47.8792C232.761 49.1981 231.545 48.5461 230.337 47.5677C229.966 47.3058 229.514 47.0345 229.064 47.0182C228.614 47.0018 228.12 47.2715 227.509 47.4912C226.164 46.6057 224.525 46.5593 222.76 46.5344C219.505 46.5536 216.271 46.1748 213.063 46.1629C211.747 46.1544 210.516 46.6653 209.175 46.2898C208.862 46.1804 208.379 46.3786 208.103 46.5647C207.161 47.073 206.146 47.2453 205.058 46.8267C204.399 46.5675 203.765 46.6752 203.12 46.8544C202.602 47.0121 202.014 47.0888 201.437 47.094C199.568 47.2026 197.64 47.1588 195.749 47.4105C194.492 47.5544 193.316 47.7078 192.047 47.6683C191.308 47.6545 190.362 47.6529 189.856 47.994C188.845 48.6763 187.807 48.7367 186.642 48.8186C185.604 48.879 184.614 49.1633 183.553 49.3666C182.32 49.6226 181.146 50.0309 179.9 50.1034C178.654 50.1758 177.43 50.1052 176.328 50.8496C175.685 51.2838 174.795 51.1796 174.237 50.5318C172.679 48.8935 171.373 46.9572 173.442 44.2152ZM240.846 53.3479C240.891 53.3169 241.077 53.4478 241.193 53.4977C241.147 53.5288 241.055 53.5908 240.974 53.5813C240.847 53.6028 240.686 53.5839 240.524 53.565C240.616 53.5029 240.754 53.4099 240.846 53.3479ZM222.424 51.3721C222.459 51.4126 222.529 51.4936 222.518 51.5651C222.518 51.5651 222.391 51.5866 222.345 51.6176C222.31 51.5771 222.287 51.4652 222.252 51.4247C222.252 51.4247 222.378 51.4031 222.424 51.3721ZM215.684 51.3105C215.732 51.5345 215.826 51.7274 215.793 51.9419C215.771 52.0849 215.633 52.178 215.53 52.3115C215.274 52.0996 215.008 51.9592 214.753 51.7473C214.81 51.6448 214.867 51.5423 214.913 51.5113C215.212 51.4372 215.466 51.3941 215.684 51.3105ZM190.386 54.4252C189.673 54.7785 189.152 54.4262 188.595 54.0334C189.231 54.1807 189.786 54.3185 190.386 54.4252ZM179.09 51.355L178.884 51.6221C178.849 51.5816 178.825 51.4696 178.79 51.4291C178.882 51.3671 179.009 51.3456 179.09 51.355ZM189.713 75.0551C191.328 74.9895 192.442 75.775 193.544 76.632C190.929 77.3084 189.957 76.9398 189.713 75.0551ZM185.739 72.8062C184.678 73.0095 184.19 72.4428 183.655 71.907C185.059 71.3436 186.161 72.2006 187.341 72.5571C187.503 72.5761 187.574 72.912 187.692 73.2169C186.894 73.0507 186.246 72.72 185.739 72.8062ZM156.653 64.1948L156.481 64.2474C156.515 64.2879 156.537 64.1449 156.653 64.1948ZM140.832 75.7714C142.304 73.4326 144.253 71.4771 146.956 70.2287C147.796 69.854 148.507 69.2458 149.242 68.7495C149.563 68.5324 149.804 68.3059 150.161 68.1293C153.163 66.8068 156.166 65.4844 159.204 64.2024C160.308 63.7131 161.482 63.3047 162.541 62.8464C163.585 60.3482 164.287 60.0665 166.707 61.187C166.788 61.1965 166.858 61.2775 166.938 61.2869C167.528 61.4652 167.756 61.0552 167.973 60.7166C168.978 60.8707 170.027 60.7389 171.066 60.6785C171.769 60.6518 172.705 60.7249 173.215 61.1487C174.643 62.2986 176.611 63.1478 176.844 65.1041C178.876 65.2693 180.383 66.1737 181.936 67.0471C184.82 68.6224 185.261 68.9652 186.114 70.3753C185.215 70.5976 184.317 70.8199 183.442 71.1541C182.959 71.3523 183.319 71.6856 183.482 71.9596C182.795 72.6797 181.977 72.9115 180.946 72.3904C180.68 72.25 180.505 72.0476 180.228 71.9787C180.112 71.9288 179.928 72.0528 179.721 72.0649C179.436 72.5774 180.41 73.201 179.34 73.7309C179.063 73.662 178.693 73.6551 178.392 73.4742C176.435 72.5535 174.331 72.0523 172.194 71.7656C171.467 71.6803 170.774 71.6356 170.397 72.2102C169.768 73.0828 168.624 72.7668 167.9 73.1915C166.692 73.8144 165.926 73.1787 165 72.7791C164.849 72.6886 164.596 72.7317 164.434 72.7128C164.078 72.8894 163.767 73.035 163.411 73.2116C163.008 73.4192 162.606 73.6268 162.238 73.8749C161.135 74.6193 160.663 74.7459 159.458 74.0224C158.148 73.1775 157.029 73.2284 155.788 74.0657C155.559 74.2208 155.329 74.3758 154.926 74.5835C152.279 73.873 149.535 74.3159 146.804 74.9423C145.779 75.1862 144.789 75.4705 143.763 75.7143C142.738 75.9582 141.723 76.1305 140.698 76.3744C140.845 75.9549 140.821 75.8429 140.832 75.7714ZM180.76 77.0635C180.398 76.4752 180.001 75.8464 179.43 75.0152C180.273 75.1504 180.874 75.2572 181.394 75.3545C182.359 74.7032 183.28 74.3379 184.244 75.288L181.993 76.8076C181.888 76.6862 181.749 76.5242 181.644 76.4028C181.368 76.5889 181.047 76.806 180.76 77.0635ZM177.142 76.2394C176.933 75.9965 176.723 75.7536 176.514 75.5107C177.218 75.484 177.252 75.5244 177.142 76.2394ZM171.78 76.8488C171.631 77.0133 170.915 76.8566 170.532 76.6662C169.873 76.407 169.235 76.0047 168.436 75.5836C169.689 74.9297 170.477 75.4224 171.255 75.9865C171.51 76.1984 172.284 76.2526 171.78 76.8488ZM158.762 99.5993C159.498 99.358 160.134 99.5053 160.866 100.1C159.783 100.447 159.204 100.197 158.762 99.5993ZM115.442 98.4193C117.414 96.5758 119.571 94.8632 121.729 93.1506C123.427 91.7481 125.253 90.579 127.324 89.6934C128.026 89.4117 128.624 89.0085 129.256 88.6458C131.06 87.6198 133.017 86.9391 135.094 86.8184C136.106 87.9924 137.383 89.0519 138.015 90.2905C138.73 91.7936 140.451 92.1045 141.475 93.207C141.58 93.3285 141.719 93.4904 141.87 93.5808C142.171 93.7617 142.542 94.0236 142.866 94.0615C144.424 94.0984 145.469 95.0579 146.8 95.5049C147.505 95.7331 148.211 95.9614 148.962 96.1586C150.5 96.5935 152.244 96.7614 153.53 97.4943C155.002 98.3582 156.928 98.1471 158.286 99.216C158.436 99.3064 158.541 99.4279 158.646 99.5493C157.244 100.368 155.851 100.86 154.23 100.16C152.99 100.998 151.777 100.856 150.537 100.092C149.934 99.7299 149.456 99.0916 148.569 99.2424C146.963 100.583 146.928 100.542 145.27 99.5476C144.969 99.3667 144.657 99.2573 144.229 99.098C143.967 99.7225 143.855 100.183 143.605 100.736C140.864 99.8321 137.962 100.766 135.278 99.7601C134.822 100.58 134.214 101.055 133.221 101.084C131.606 101.15 129.921 101.134 128.389 101.464C127.409 101.677 126.533 101.757 125.641 101.397C124.785 101.079 123.929 100.76 123.027 100.472C121.841 100.952 120.597 101.28 120.18 102.65C119 102.294 117.937 101.987 116.838 101.64C115.774 101.333 114.589 101.813 113.477 101.283C113.745 100.077 114.616 99.2325 115.442 98.4193ZM159.624 107.343C158.68 107.597 157.884 107.685 157.234 107.1C158.005 106.899 158.788 106.627 159.624 107.343ZM156.378 105.18C156.389 105.108 156.354 105.068 156.33 104.956C156.376 104.925 156.468 104.863 156.503 104.903C156.583 104.913 156.653 104.994 156.688 105.034L156.378 105.18ZM151.549 104.468C151.541 105.05 151.115 105.145 150.757 105.067C150.282 104.939 149.693 104.761 150.102 103.971C150.611 104.14 151.12 104.309 151.549 104.468ZM148.136 104.979C147.859 104.91 147.627 104.81 147.431 104.75C147.442 104.679 147.499 104.576 147.545 104.545C147.717 104.493 147.925 104.481 148.041 104.531C148.122 104.54 148.088 104.755 148.136 104.979ZM144.184 104.188C144.277 104.381 144.062 104.975 143.936 104.996C143.428 105.082 142.908 104.985 142.124 105.002C142.42 104.418 142.497 103.918 142.807 103.772C143.267 103.462 143.892 103.681 144.184 104.188ZM139.884 104.849C139.827 104.952 139.562 105.066 139.446 105.016C139.053 104.897 138.671 104.707 138.324 104.557C138.392 104.383 138.46 104.209 138.528 104.035C138.921 104.154 139.36 104.242 139.742 104.432C139.823 104.442 139.906 104.706 139.884 104.849ZM135.832 104.702C135.775 104.804 135.65 105.081 135.615 105.041C135.373 105.012 135.141 104.912 134.91 104.812C135.128 104.729 135.347 104.645 135.646 104.571C135.681 104.612 135.832 104.702 135.832 104.702ZM134.818 104.874C134.682 105.222 134.511 105.53 134.421 105.847C133.669 105.65 132.963 105.421 131.98 105.124C133.07 104.196 133.89 104.22 134.818 104.874ZM130.13 104.58C130.04 104.897 129.915 105.174 129.814 105.562C129.467 105.412 129.189 105.343 129.05 105.181C128.805 104.898 128.791 104.459 129.217 104.364C129.436 104.28 129.772 104.502 130.13 104.58ZM123.71 105.648C123.572 105.741 123.388 105.865 123.307 105.855C122.995 105.746 122.728 105.606 122.462 105.465C122.796 105.432 123.131 105.398 123.465 105.364C123.546 105.374 123.64 105.567 123.71 105.648ZM112.799 103.278L112.567 103.178L112.705 103.085L112.799 103.278ZM116.515 106.661C116.527 106.59 116.538 106.518 116.583 106.487L116.837 106.444C116.71 106.466 116.572 106.559 116.515 106.661ZM157.82 129.697C157.807 129.513 157.76 129.289 157.747 129.106C157.909 129.125 158.07 129.144 158.232 129.163C158.072 129.399 157.969 129.532 157.82 129.697ZM155.531 125.862C155.243 125.865 154.873 125.858 154.585 125.86C154.504 125.851 154.399 125.729 154.399 125.729C154.456 125.627 154.57 125.422 154.651 125.431C154.94 125.429 155.298 125.507 155.541 125.535C155.564 125.647 155.553 125.719 155.531 125.862ZM171.601 120.138C171.486 120.088 171.289 120.028 171.173 119.978C171.173 119.978 171.195 119.835 171.241 119.804C171.403 119.823 171.565 119.842 171.691 119.821C171.68 119.892 171.623 119.995 171.601 120.138ZM183.384 120.062C182.88 120.658 182.2 120.797 181.379 120.519C181.868 119.484 181.868 119.484 183.196 119.676C183.231 119.717 183.279 119.941 183.384 120.062ZM182.083 117.289C180.319 117.519 180.319 117.519 179.218 118.519C178.794 118.869 178.52 119.31 178.095 119.661C177.855 119.888 177.533 120.105 177.188 120.21C177.061 120.231 176.679 120.041 176.62 119.889C176.381 118.769 175.973 118.211 174.992 118.169C174.137 118.106 173.296 118.225 172.384 118.264C169.2 118.364 166.1 118.984 162.921 118.248C162.482 118.16 161.975 118.246 161.514 118.301C160.106 118.355 158.652 118.439 157.21 118.452C156.344 118.46 155.398 118.458 154.669 118.118C153.21 117.438 151.721 117.482 150.196 117.23C147.539 116.846 144.871 116.534 142.236 116.007C139.717 115.53 137.22 114.91 134.688 114.249C132.826 113.776 130.954 113.375 129.264 112.595C127.11 111.614 124.946 110.706 122.702 110.043C122.344 109.964 121.916 109.805 121.752 109.531C121.262 108.709 120.35 108.748 119.507 108.613C119.183 108.575 118.882 108.394 118.072 108.044C119.72 107.764 120.815 107.602 121.91 107.439C122.498 107.362 123.097 107.214 123.617 107.311C124.057 107.399 124.406 107.804 124.893 108.116C124.887 107.351 124.999 106.891 125.773 106.945C126.061 106.942 126.339 107.011 126.581 107.04C127.697 106.479 128.91 106.621 130.121 106.508C131.62 106.392 133.097 106.42 134.432 105.775C135.159 105.861 135.876 106.017 136.58 105.991C140.433 105.823 144.229 105.758 148.075 106.172C150.003 106.216 151.942 106.189 153.847 106.375C154.944 106.467 156.12 106.314 157.083 107.009C156.565 107.167 156.001 107.356 155.482 107.513C156.052 108.089 156.802 108.032 157.529 108.117C160.197 108.429 162.865 108.742 165.114 110.17C166.088 110.794 167.244 111.038 168.139 110.306C169.216 110.796 170.085 111.298 171.057 111.667C173.208 112.392 175.428 112.943 177.58 113.668C179.559 114.446 181.308 115.379 182.083 117.289ZM164.026 99.8884C164.002 99.7764 163.978 99.6644 164 99.5214C164.162 99.5404 164.278 99.5903 164.44 99.6092L164.487 99.8332C164.315 99.8858 164.153 99.8668 164.026 99.8884ZM168.905 101.079C168.743 101.06 168.546 101 168.385 100.981C168.431 100.95 168.488 100.848 168.533 100.817C168.695 100.836 168.892 100.895 169.053 100.914C168.997 101.017 168.985 101.088 168.905 101.079ZM169.115 98.1187C170.291 97.9653 170.291 97.9653 170.941 98.551C170.305 98.4038 169.947 98.3254 169.115 98.1187ZM175.204 99.196C176.968 98.9658 178.381 99.6773 179.816 100.246C177.036 100.393 176.446 100.215 175.204 99.196ZM182.524 102.965C182.352 103.018 182.144 103.03 181.982 103.011C181.866 102.961 181.808 102.808 181.703 102.687C181.876 102.634 182.094 102.551 182.21 102.601C182.407 102.66 182.42 102.844 182.524 102.965ZM182.74 100.77C182.486 100.813 182.163 100.775 181.92 100.747C181.839 100.737 181.791 100.513 181.733 100.361C182.148 100.337 182.528 100.272 183.07 100.227C182.899 100.534 182.866 100.749 182.74 100.77ZM185.477 101.164L185.545 100.99L185.696 101.08L185.477 101.164ZM198.061 101.764C197.923 101.857 197.785 101.95 197.658 101.972C197.612 102.003 197.519 101.81 197.414 101.688C197.587 101.636 197.749 101.655 197.921 101.602L198.061 101.764ZM201.355 102.55C201.31 102.581 201.148 102.562 201.113 102.522C201.043 102.441 201.065 102.298 201.006 102.146C201.168 102.164 201.33 102.183 201.491 102.202C201.435 102.305 201.412 102.448 201.355 102.55ZM210.716 102.7C212.989 102.639 214.962 102.652 216.975 103.215C214.358 103.637 212.36 103.512 210.716 102.7ZM218.889 103.076C218.728 103.057 218.612 103.007 218.461 102.916C218.634 102.864 218.761 102.842 218.933 102.79C219.014 102.799 219.095 102.808 219.211 102.858C219.073 102.951 218.97 103.085 218.889 103.076ZM245.514 98.2965C244.972 98.3422 244.536 98.7643 243.972 98.953C243.454 99.1107 242.879 99.3708 242.348 99.345C240.547 99.2797 238.759 99.3978 236.984 99.6994C235.163 100.032 233.388 100.334 231.624 100.564C230.655 100.705 229.452 100.237 229.046 101.536C228.055 101.82 227.077 102.288 226.104 101.664C225.297 101.824 225.317 103.028 224.185 102.895C223.706 102.002 223.007 101.192 223.265 100.058C223.713 99.8191 224.162 99.5805 224.61 99.3419C223.686 99.1972 222.807 99.0215 221.907 98.9888C221.619 98.9915 221.286 99.28 220.975 99.4256C221.233 99.8925 221.466 100.247 221.653 100.633C221.688 100.674 221.55 100.767 221.447 100.9C219.141 101.176 216.898 100.513 214.555 100.493C214.505 100.014 214.515 99.6879 214.478 99.3925C213.274 98.9239 212.192 99.2703 211.144 99.6571C211.549 99.7045 212.091 99.6588 211.98 100.374C211.53 100.357 211.069 100.413 210.665 100.365C210.503 100.346 210.386 100.041 210.246 99.8794L210.948 99.5977C209.388 99.3058 207.863 99.0543 206.257 98.7934C205.459 98.6272 204.583 98.7065 203.954 97.9778C204.101 97.5583 204.283 97.1793 204.419 96.8313C202.051 96.4447 199.75 95.884 197.415 96.8843C196.713 97.166 195.72 97.1953 195.221 96.7001C194.5 96.0334 193.705 96.1222 192.815 96.018C191.244 95.7976 189.57 95.7107 188.168 94.9277C187.716 94.6564 187.059 94.6522 186.493 94.5859C185.765 94.5006 184.98 94.5179 184.218 94.3922C182.415 94.0719 180.693 93.761 178.959 93.2667C177.189 92.7319 175.273 92.6165 173.412 92.1438C170.29 91.3049 167.078 90.7831 163.945 90.0158C161.725 89.4647 159.573 88.7395 157.422 88.0143C155.004 87.1488 152.689 86.1497 150.362 85.2221C149.24 84.763 148.117 84.304 147.187 83.3944C147.358 83.0869 147.518 82.8508 147.689 82.5433C146.8 82.4391 145.899 82.4065 144.767 82.2739C145.192 81.9233 145.398 81.6562 145.57 81.6036C148.048 81.0203 150.536 80.3655 153.037 79.8941C155.365 79.4754 157.787 79.2495 160.128 79.0142C161.927 78.8246 163.786 79.0424 165.383 78.0284C165.705 77.8113 166.341 77.9586 166.756 77.9345C168.199 77.9214 169.641 77.9084 171.06 77.7834C171.683 77.7472 172.35 77.425 172.89 77.1244C173.568 76.7306 173.136 76.0613 173.225 75.4894C173.247 75.3464 173.43 75.2223 173.682 74.9243C174.491 75.019 175.415 75.1636 176.35 75.2368C176.137 76.0853 176.207 76.1663 177.048 76.0465C178.105 76.9345 179.296 77.2196 180.677 76.7991C181.104 76.7035 181.519 76.6793 181.945 76.5837C183.011 77.1452 184.088 77.6353 185.38 77.5319C185.815 77.1097 185.501 76.7454 185.176 76.4525C184.711 75.9977 185.159 75.7591 185.376 75.4206C185.029 75.2707 184.682 75.1208 184.334 74.971C184.38 74.94 184.426 74.9089 184.507 74.9184C186.962 74.4781 187.078 74.528 188.395 76.3929C188.559 76.6668 188.827 77.0622 189.15 77.1001C190.85 77.5539 192.562 78.1912 194.391 77.2772C196.533 78.3288 198.922 78.3175 201.256 78.6636C202.015 78.2794 202.755 78.5481 203.472 78.7048C205.692 79.256 207.911 79.8071 210.096 80.3178C211.287 80.6028 212.637 80.6519 213.668 81.1729C215.845 82.2651 218.227 82.8352 220.722 83.2003C221 83.2691 221.288 83.2665 221.555 83.4069C225.22 84.455 228.851 85.4626 232.506 86.5822C238.242 88.346 243.751 90.5199 247.889 94.644C248.063 94.8464 248.341 94.9153 248.526 95.0462C248.379 97.0671 247.486 98.0543 245.514 98.2965ZM246.132 78.0242C245.96 78.0767 245.787 78.1293 245.625 78.1104C245.601 77.9984 245.623 77.8554 245.6 77.7434C245.761 77.7623 245.923 77.7813 246.131 77.7692C246.155 77.8812 246.178 77.9932 246.132 78.0242ZM256.426 84.3979C256.229 84.3385 256.043 84.2076 255.847 84.1481C255.893 84.1171 255.985 84.0551 256.076 83.9931C256.273 84.0525 256.505 84.1524 256.701 84.2118C256.609 84.2739 256.46 84.4384 256.426 84.3979ZM260.967 80.3077C260.805 80.2887 260.643 80.2698 260.482 80.2509C260.482 80.2509 260.458 80.1389 260.469 80.0674C260.595 80.0459 260.803 80.0338 260.93 80.0122C260.919 80.0837 260.943 80.1957 260.967 80.3077ZM272.196 80.3492C272.093 80.4827 272.025 80.6567 271.898 80.6783C271.645 80.7214 271.31 80.755 271.068 80.7265C270.871 80.6671 270.707 80.3932 270.614 80.2002C270.579 80.1598 270.866 79.9022 270.992 79.8807C271.362 79.8875 271.72 79.9659 271.997 80.0348C272.137 80.1967 272.242 80.3182 272.196 80.3492ZM276.439 79.7907C275.99 80.0294 275.542 80.268 275.024 80.4257C274.897 80.4472 274.666 80.3473 274.561 80.2259C274.491 80.1449 274.581 79.8279 274.662 79.8374C275.145 79.6392 275.652 79.553 276.171 79.3953C276.31 79.5573 276.334 79.6693 276.439 79.7907ZM274.362 70.0484C274.911 71.0226 275.817 71.8202 276.585 72.7108C277.004 73.1966 277.434 73.611 277.807 74.1278C278.507 75.1924 278.146 76.4604 276.765 76.8809C275.636 77.2582 274.51 77.8906 273.179 77.4436C272.786 77.3248 272.233 77.4419 271.761 77.5686C270.655 77.803 269.572 78.1493 268.455 78.4552C268.078 79.0298 267.701 79.6043 267.279 80.2099C266.367 80.2488 265.491 80.3281 264.66 80.3764C264.243 81.7469 264.024 81.8305 262.714 80.9855C263.293 79.6339 265.246 80.0447 266.195 78.7C264.337 78.7371 262.722 78.8027 261.118 78.7968C259.19 78.753 257.24 78.8522 255.392 78.5628C253.301 78.2451 251.346 77.5794 249.142 77.7216C248.727 77.7458 248.229 77.5055 247.755 77.3772C246.923 77.1705 246.136 76.9328 245.258 76.7571C241.329 76.0786 237.311 75.717 233.426 74.7525C231.126 74.1919 228.779 73.6623 226.479 73.1016C225.369 72.8261 224.305 72.5195 223.184 72.3154C217.707 71.2734 212.479 69.6784 207.182 68.0025C204.475 67.1395 201.79 66.1336 199.176 65.2086C196.249 64.1742 193.23 63.2019 190.804 61.3164C190.329 60.9331 189.612 60.7764 189.044 60.4551C187.4 59.6438 185.72 58.792 183.995 57.9712C184.164 57.4087 184.311 56.9892 184.412 56.6007C184.57 56.1096 184.717 55.6901 184.819 55.3016C184.378 54.9588 184.122 54.7469 183.832 54.4946C185.203 54.1456 185.249 54.1146 186.037 54.6073C187.081 55.3118 188.168 55.7304 189.46 55.6269C190.337 55.5476 190.576 55.0661 190.352 54.3847C190.862 53.2072 191.851 52.6679 193.261 52.8694C193.584 52.9072 193.896 53.0166 194.255 53.095C194.725 52.7133 195.197 52.5867 195.8 52.9484C196.101 53.1293 196.599 53.3696 196.783 53.2456C198.082 52.5607 198.882 52.9818 199.73 53.882C200.335 54.4987 200.866 54.5245 201.3 53.8474C201.882 53.0058 202.755 52.4165 203.588 52.6232C204.617 52.8893 205.385 52.1786 206.193 52.2733C206.704 52.6971 207.11 52.9994 207.261 53.0899C209.554 52.6306 211.443 52.124 213.253 53.4642C213.81 53.857 214.339 53.6278 214.774 53.2057C214.991 52.8671 215.243 52.5691 215.46 52.2305C216.743 52.4535 217.99 52.6361 219.273 52.8591C220.555 53.0821 221.851 53.4886 223.209 52.9562C223.428 52.8726 223.878 52.889 223.982 53.0104C224.796 53.87 225.807 53.1877 226.662 53.2514C228.255 53.3288 229.96 52.9463 231.204 54.2202C231.343 54.3821 231.863 54.4795 232.001 54.3864C232.955 53.8066 233.804 54.7068 234.818 54.5344C234.954 52.585 232.865 52.5223 231.717 51.6963C232.764 51.3094 233.547 51.0372 234.589 51.4868C235.873 51.9648 236.007 52.9631 236.244 53.828C239.42 54.0543 242.093 55.1318 244.825 56.3617C245.285 56.0515 245.674 55.6604 246.193 55.5028C246.676 55.3046 247.288 55.3399 247.795 55.2537C248.144 55.6586 248.55 55.9609 249.208 55.9651C248.859 55.5603 248.453 55.258 247.876 55.2632C247.341 54.7274 246.727 54.4372 245.897 54.4855C245.608 54.4881 245.272 54.2667 244.879 54.1479C246.461 52.6954 246.415 52.7264 247.876 53.6618C249.337 54.5972 250.911 55.3276 252.826 55.1879C253.449 55.1517 254.166 55.3084 254.3 56.3068C253.526 56.2526 252.833 56.2078 252.095 56.1941C251.24 56.1304 250.432 56.0357 249.577 55.972C250.046 56.9368 250.891 57.3269 251.955 57.6335C255.146 58.5533 258.27 59.6471 260.903 61.5205C262.41 60.8235 263.544 61.2111 264.543 62.2016C265.113 62.7779 265.739 63.2516 266.447 63.7348C267.931 64.7822 269.508 65.7675 271.038 66.7839C272.499 67.7193 273.579 68.7193 274.362 70.0484ZM238.343 48.7602C238.597 48.7171 238.862 48.6025 238.897 48.643C239.036 48.8049 239.13 48.9979 239.258 49.2313C239.086 49.2839 238.867 49.3674 238.751 49.3175C238.612 49.1556 238.518 48.9626 238.343 48.7602ZM258.609 56.9207C258.655 56.8897 258.757 56.7562 258.792 56.7967C258.908 56.8466 259.013 56.9681 259.129 57.018C259.083 57.049 259.026 57.1515 258.945 57.1421C258.829 57.0921 258.724 56.9707 258.609 56.9207ZM263.211 51.6366L263.117 51.4436L263.348 51.5435L263.211 51.6366ZM265.324 51.8113C265.243 51.8018 265.162 51.7923 265.081 51.7829C265.173 51.7209 265.276 51.5873 265.357 51.5968C265.519 51.6157 265.634 51.6657 265.785 51.7561C265.623 51.7372 265.45 51.7898 265.324 51.8113ZM266.004 51.6726C266.004 51.6726 266.004 51.6726 266.096 51.6105C266.141 51.5795 266.222 51.589 266.303 51.5985L266.004 51.6726ZM282.734 56.0707C282.572 56.0518 282.319 56.0948 282.284 56.0544C282.085 55.74 281.898 55.3541 281.699 55.0397C282.036 55.261 282.418 55.4514 282.754 55.6727C282.835 55.6822 282.756 55.9277 282.734 56.0707ZM321.552 57.0873C322.044 56.5627 322.491 56.069 322.949 55.5039C323.176 56.6952 322.993 56.8193 321.552 57.0873ZM325.292 53.9223C324.592 54.4589 323.776 54.9457 322.96 55.4324C321.469 55.2215 320.04 55.418 318.349 56.239C319.61 56.605 320.477 56.8522 321.425 57.1088C321.16 57.2234 320.942 57.307 320.723 57.3906C317.498 58.2866 314.117 58.3273 310.881 59.2949C310.19 59.5051 309.358 59.2984 308.584 59.2442C306.206 59.184 303.86 58.6544 301.451 59.0638C301.197 59.1068 300.874 59.069 300.653 58.8976C298.474 57.5505 295.493 58.7299 293.393 57.1373C293.358 57.0968 293.232 57.1184 293.105 57.1399C291.916 57.1098 290.773 57.0487 289.619 57.0592C289.411 57.0712 289.25 57.0523 289.042 57.0644C288.384 57.0601 287.68 57.0868 287.105 57.347C285.944 57.9389 285.145 57.5177 284.055 56.8442C284.34 56.3316 284.625 55.8191 284.945 55.347C284.436 55.1782 283.835 55.0714 283.337 54.8311C282.653 54.4599 282.1 54.5771 281.503 54.9802C279.373 54.1121 276.858 54.145 274.978 52.7238C274.723 52.5119 274.043 52.6506 273.582 52.7058C273.039 52.7515 272.486 52.8687 272.187 52.9428C271.34 52.2976 270.827 51.6189 270.076 51.4216C268.538 50.9867 266.908 50.6138 265.361 50.5054C264.021 50.3849 262.887 49.9973 261.971 49.2712C260.602 48.2738 258.983 47.8294 257.318 47.416C256.682 47.2688 256.001 47.1526 255.376 46.9338C253.27 46.1776 251.141 45.3095 249.024 44.6248C242.512 42.5518 236.25 39.9258 230.205 36.9612C224.275 34.0466 218.471 30.8554 213.067 27.2017C212.847 27.0303 212.672 26.8279 212.544 26.5944C212.474 26.5135 212.634 26.2774 212.759 26.0009C213.464 26.2292 214.135 26.4169 214.76 26.6357C215.149 26.2446 215.447 25.9155 215.642 25.7199C217.349 25.5923 218.848 25.4768 220.348 25.3613C221.022 24.4576 222.064 24.9072 222.941 24.8279C224.855 24.6882 226.5 25.4996 228.268 25.7794C228.429 25.7984 228.613 25.6743 228.786 25.6218C228.887 25.2333 228.988 24.8447 229.1 24.3848C230.243 24.4458 231.27 24.457 232.252 24.4991C232.533 25.078 232.755 25.5043 232.977 25.9307C236.294 26.574 236.294 26.574 238.045 26.1604C237.279 25.5247 235.998 25.5567 235.241 24.5945C236.684 24.5815 237.77 24.7451 238.789 25.3377C239.855 25.8993 240.772 26.6254 242.181 26.8269C242.235 26.2144 242.266 25.7449 242.285 25.092C243.084 25.5132 243.754 25.7009 244.23 26.0842C245.553 27.1126 247.135 27.2616 248.809 27.3485C249.952 27.4096 251.141 27.4396 252.227 27.6032C254.688 27.9278 257.08 28.4264 259.619 28.5055C261.213 28.5829 262.842 28.9558 264.426 29.3597C265.062 29.507 265.527 29.9618 266.095 30.283C266.957 29.7653 267.811 29.829 268.485 30.5267C268.105 30.5913 267.679 30.6869 267.298 30.7516C267.785 31.0634 268.177 30.9272 268.52 30.5672C270.953 30.2698 273.68 30.7348 276.076 31.7434C276.458 31.9337 276.84 32.124 277.188 32.2739C277.395 32.2618 277.557 32.2808 277.765 32.2687C279.112 31.8078 280.335 31.8783 281.576 32.6423C282.178 33.0041 282.954 33.3133 283.647 33.358C285.898 33.4397 287.865 34.2889 289.879 35.1071C290.77 35.4663 291.651 35.8969 292.551 35.9296C293.163 35.9649 293.683 36.0622 294.249 36.1285C296.017 36.4083 297.74 36.9741 299.418 37.571C300.979 38.1179 302.369 38.7173 303.416 39.9318C304.114 40.7415 305.018 41.2841 306.334 41.2927C306.946 41.328 307.548 41.6897 308.127 41.9395C309.053 42.3391 310.014 42.7792 310.94 43.1789L310.975 43.2194C311.901 43.619 312.873 43.9876 313.696 44.5208C316.71 46.3295 319.677 48.1693 322.587 50.1116C323.561 50.7352 324.318 51.6973 325.097 52.5164C325.85 52.9686 325.762 53.5406 325.292 53.9223Z" fill="#FCCF35"/>
</g>
<defs>
<filter id="filter0_d_210_2181" x="0.6521" y="0.16478" width="341.859" height="214.182" filterUnits="userSpaceOnUse" color-interpolation-filters="sRGB">
<feFlood flood-opacity="0" result="BackgroundImageFix"/>
<feColorMatrix in="SourceAlpha" type="matrix" values="0 0 0 0 0 0 0 0 0 0 0 0 0 0 0 0 0 0 127 0" result="hardAlpha"/>
<feOffset dy="4"/>
<feGaussianBlur stdDeviation="2"/>
<feComposite in2="hardAlpha" operator="out"/>
<feColorMatrix type="matrix" values="0 0 0 0 0 0 0 0 0 0 0 0 0 0 0 0 0 0 0.25 0"/>
<feBlend mode="normal" in2="BackgroundImageFix" result="effect1_dropShadow_210_2181"/>
<feBlend mode="normal" in="SourceGraphic" in2="effect1_dropShadow_210_2181" result="shape"/>
</filter>
</defs>
</svg>
