<svg width="1358" height="450" viewBox="0 0 1358 450" fill="none" xmlns="http://www.w3.org/2000/svg">
<g clip-path="url(#clip0_257_291)">
<path d="M784.655 152.001L810.29 179.754C806.536 182.628 801.843 183.996 797.132 183.591C792.422 183.185 788.032 181.035 784.824 177.562C781.615 174.089 779.82 169.543 779.788 164.814C779.757 160.086 781.493 155.517 784.655 152.001Z" fill="#FCCF35"/>
</g>
<g clip-path="url(#clip1_257_291)">
<path d="M305.448 182.743L284.002 169.778C285.866 167.255 288.604 165.519 291.681 164.91C294.757 164.301 297.951 164.863 300.634 166.486C303.318 168.109 305.3 170.675 306.19 173.682C307.081 176.69 306.816 179.921 305.448 182.743Z" fill="#FCCF35"/>
</g>
<path d="M57.4926 449.89C57.2777 449.885 57.0659 449.842 56.8694 449.764C56.673 449.686 56.4958 449.574 56.348 449.434C56.2002 449.294 56.0848 449.129 56.0083 448.949C55.9319 448.769 55.896 448.577 55.9026 448.385C55.9157 447.996 56.0994 447.627 56.4139 447.359C56.7285 447.091 57.1484 446.944 57.5826 446.952C58.0168 446.966 58.4272 447.133 58.7249 447.416C59.0225 447.699 59.1834 448.076 59.1726 448.465C59.1596 448.847 58.9811 449.209 58.6749 449.475C58.3688 449.741 57.9591 449.89 57.5326 449.89H57.4926ZM62.4926 448.376C62.4566 447.989 62.5931 447.605 62.8723 447.308C63.1515 447.011 63.5507 446.825 63.9826 446.79C64.4147 446.758 64.8435 446.88 65.1751 447.131C65.5068 447.381 65.7145 447.738 65.7526 448.125C65.7887 448.514 65.6511 448.901 65.37 449.2C65.0889 449.498 64.6872 449.685 64.2526 449.719H64.1226C63.7102 449.723 63.3117 449.586 63.0073 449.337C62.703 449.088 62.5155 448.744 62.4826 448.376H62.4926ZM50.7626 449.379C50.5495 449.353 50.3444 449.289 50.159 449.191C49.9736 449.093 49.8116 448.964 49.6824 448.81C49.5532 448.656 49.4593 448.48 49.4061 448.294C49.3529 448.107 49.3416 447.913 49.3726 447.722C49.402 447.531 49.4733 447.347 49.5824 447.181C49.6915 447.015 49.8362 446.87 50.0082 446.754C50.1802 446.639 50.376 446.555 50.5844 446.507C50.7929 446.459 51.0098 446.449 51.2226 446.477C51.4371 446.501 51.6441 446.563 51.8313 446.66C52.0186 446.757 52.1822 446.887 52.3127 447.041C52.4432 447.196 52.5378 447.372 52.591 447.56C52.6443 447.747 52.655 447.943 52.6226 448.134C52.5693 448.485 52.3756 448.806 52.0777 449.038C51.7797 449.271 51.3977 449.398 51.0026 449.397L50.7626 449.379ZM69.0226 447.713C68.9371 447.332 69.0238 446.936 69.2637 446.612C69.5037 446.288 69.8773 446.062 70.3026 445.984C70.7294 445.908 71.1729 445.985 71.5362 446.2C71.8996 446.414 72.1535 446.749 72.2426 447.131C72.3225 447.513 72.2322 447.908 71.9911 448.231C71.75 448.554 71.3772 448.78 70.9526 448.86C70.8429 448.869 70.7324 448.869 70.6226 448.86C70.2485 448.862 69.8849 448.749 69.592 448.54C69.2992 448.332 69.0947 448.04 69.0126 447.713H69.0226ZM44.1326 448.188C43.7125 448.089 43.3533 447.845 43.134 447.509C42.9146 447.173 42.853 446.773 42.9626 446.396C43.0731 446.02 43.3457 445.698 43.7206 445.502C44.0956 445.305 44.5423 445.25 44.9626 445.348C45.1713 445.396 45.3674 445.481 45.5394 445.597C45.7115 445.713 45.8561 445.859 45.9649 446.025C46.0737 446.192 46.1445 446.376 46.1733 446.568C46.2021 446.759 46.1883 446.953 46.1326 447.14C46.0405 447.453 45.836 447.731 45.5505 447.93C45.265 448.129 44.9144 448.238 44.5526 448.242C44.4075 448.238 44.2634 448.22 44.1226 448.188H44.1326ZM75.4326 446.396C75.2947 446.032 75.3222 445.633 75.5092 445.286C75.6963 444.939 76.0279 444.672 76.4326 444.542C76.8477 444.424 77.2983 444.457 77.6861 444.635C78.0739 444.813 78.3674 445.121 78.5026 445.492C78.6347 445.862 78.5973 446.265 78.3986 446.611C78.1999 446.957 77.8561 447.218 77.4426 447.337C77.2777 447.384 77.1057 447.408 76.9326 447.409C76.5928 447.398 76.2649 447.294 75.9943 447.109C75.7238 446.924 75.524 446.669 75.4226 446.378L75.4326 446.396ZM37.6926 446.334C37.2921 446.188 36.9708 445.908 36.7971 445.553C36.6234 445.199 36.611 444.797 36.7626 444.435C36.9232 444.072 37.2371 443.781 37.6361 443.625C38.0351 443.469 38.4867 443.461 38.8926 443.602C39.0935 443.671 39.277 443.775 39.4326 443.909C39.5882 444.042 39.7129 444.201 39.7993 444.378C39.8858 444.554 39.9324 444.744 39.9364 444.937C39.9404 445.13 39.9017 445.321 39.8226 445.501C39.7041 445.776 39.4957 446.013 39.2245 446.181C38.9534 446.349 38.6321 446.439 38.3026 446.441C38.0894 446.432 37.8795 446.39 37.6826 446.316L37.6926 446.334ZM81.6226 444.399C81.4429 444.045 81.4272 443.641 81.579 443.277C81.7309 442.913 82.0378 442.617 82.4326 442.455C82.6275 442.374 82.8384 442.328 83.0532 442.32C83.268 442.312 83.4824 442.343 83.6841 442.409C83.8858 442.476 84.0708 442.577 84.2284 442.708C84.386 442.839 84.5132 442.997 84.6026 443.172C84.7828 443.527 84.7987 443.932 84.647 444.298C84.4952 444.664 84.1881 444.961 83.7926 445.124C83.5772 445.205 83.3462 445.248 83.1126 445.25C82.8 445.248 82.4943 445.167 82.2307 445.017C81.9671 444.866 81.7563 444.652 81.6226 444.399ZM31.5426 443.799C31.3524 443.709 31.1838 443.587 31.0466 443.439C30.9093 443.291 30.8061 443.12 30.7429 442.936C30.6797 442.752 30.6578 442.558 30.6783 442.367C30.6988 442.175 30.7615 441.989 30.8626 441.819C30.9626 441.649 31.0992 441.498 31.2645 441.375C31.4299 441.252 31.6208 441.16 31.8262 441.103C32.0316 441.046 32.2474 441.027 32.4613 441.045C32.6753 441.064 32.883 441.12 33.0726 441.21C33.2629 441.3 33.4314 441.422 33.5687 441.57C33.7059 441.718 33.8091 441.889 33.8723 442.073C33.9355 442.257 33.9575 442.451 33.9369 442.642C33.9164 442.834 33.8538 443.02 33.7526 443.19C33.6135 443.424 33.4062 443.62 33.1527 443.757C32.8991 443.895 32.6088 443.968 32.3126 443.969C32.0407 443.973 31.7722 443.914 31.5326 443.799H31.5426ZM87.5426 441.792C87.3204 441.459 87.2535 441.061 87.3565 440.684C87.4594 440.307 87.7238 439.981 88.0926 439.777C88.4656 439.575 88.9126 439.514 89.336 439.606C89.7594 439.698 90.1249 439.937 90.3526 440.27C90.5739 440.604 90.6393 441.003 90.5344 441.38C90.4296 441.758 90.1631 442.083 89.7926 442.285C89.5397 442.424 89.2492 442.498 88.9526 442.5C88.6634 442.505 88.3778 442.441 88.1249 442.315C87.872 442.19 87.6608 442.006 87.5126 441.784L87.5426 441.792ZM25.7726 440.673C25.4153 440.452 25.1697 440.113 25.0892 439.731C25.0087 439.349 25.0998 438.953 25.3426 438.631C25.5911 438.312 25.9697 438.094 26.3964 438.023C26.8232 437.953 27.2637 438.036 27.6226 438.254C27.9772 438.475 28.2208 438.812 28.3012 439.192C28.3816 439.573 28.2924 439.966 28.0526 440.288C27.8893 440.487 27.6728 440.646 27.423 440.751C27.1732 440.856 26.898 440.903 26.6226 440.888C26.3128 440.89 26.0082 440.816 25.7426 440.673H25.7726ZM93.0726 438.595C92.9403 438.443 92.843 438.269 92.7863 438.084C92.7297 437.898 92.715 437.704 92.7429 437.513C92.7708 437.322 92.8409 437.138 92.949 436.972C93.0571 436.805 93.2011 436.66 93.3726 436.544C93.5414 436.425 93.7349 436.337 93.9419 436.285C94.1489 436.234 94.3652 436.22 94.5783 436.244C94.7914 436.268 94.997 436.33 95.1832 436.426C95.3693 436.522 95.5323 436.65 95.6626 436.803C95.794 436.956 95.8904 437.131 95.9464 437.317C96.0024 437.503 96.0169 437.698 95.989 437.889C95.9612 438.08 95.8915 438.265 95.784 438.432C95.6765 438.599 95.5333 438.746 95.3626 438.864C95.0778 439.064 94.725 439.172 94.3626 439.168C94.1078 439.172 93.8554 439.123 93.626 439.023C93.3967 438.923 93.1968 438.777 93.0426 438.595H93.0726ZM20.4226 436.974C20.2589 436.848 20.1245 436.695 20.0272 436.523C19.93 436.351 19.8717 436.163 19.8559 435.971C19.8401 435.778 19.8671 435.585 19.9351 435.402C20.0032 435.219 20.1111 435.05 20.2526 434.905C20.5367 434.61 20.9394 434.429 21.3725 434.401C21.8055 434.372 22.2335 434.499 22.5626 434.752C22.8895 435.008 23.0899 435.369 23.1199 435.757C23.1499 436.145 23.0071 436.528 22.7226 436.821C22.5723 436.982 22.3841 437.112 22.1714 437.2C21.9588 437.288 21.727 437.333 21.4926 437.332C21.0894 437.337 20.6981 437.209 20.3926 436.974H20.4226ZM98.1626 434.86C98.0093 434.725 97.8876 434.564 97.8045 434.386C97.7214 434.208 97.6786 434.018 97.6786 433.825C97.6786 433.633 97.7214 433.442 97.8045 433.264C97.8876 433.087 98.0093 432.926 98.1626 432.791C98.3141 432.654 98.4941 432.546 98.6923 432.473C98.8905 432.399 99.103 432.361 99.3176 432.361C99.5323 432.361 99.7448 432.399 99.943 432.473C100.141 432.546 100.321 432.654 100.473 432.791C100.625 432.927 100.746 433.089 100.828 433.267C100.911 433.446 100.953 433.637 100.953 433.83C100.953 434.023 100.911 434.214 100.828 434.392C100.746 434.57 100.625 434.732 100.473 434.869C100.167 435.134 99.7581 435.282 99.3326 435.281C99.1112 435.287 98.8908 435.253 98.6845 435.18C98.4783 435.108 98.2905 434.999 98.1326 434.86H98.1626ZM15.5626 432.755C15.2702 432.467 15.1167 432.087 15.1354 431.697C15.1541 431.308 15.3436 430.941 15.6626 430.677C15.8212 430.547 16.0069 430.446 16.2091 430.381C16.4112 430.315 16.6258 430.286 16.8405 430.296C17.0552 430.305 17.2658 430.352 17.4601 430.434C17.6544 430.517 17.8285 430.632 17.9726 430.775C18.2657 431.061 18.4207 431.439 18.4038 431.826C18.387 432.214 18.1996 432.58 17.8826 432.844C17.5744 433.091 17.176 433.228 16.7626 433.23C16.5318 433.232 16.303 433.192 16.091 433.11C15.8791 433.028 15.6888 432.907 15.5326 432.755H15.5626ZM102.743 430.641C102.408 430.393 102.196 430.036 102.153 429.649C102.11 429.261 102.239 428.874 102.513 428.572C102.79 428.272 103.188 428.082 103.62 428.044C104.053 428.005 104.485 428.121 104.823 428.366C105.155 428.615 105.366 428.972 105.409 429.358C105.452 429.745 105.324 430.132 105.053 430.435C104.897 430.602 104.703 430.736 104.484 430.829C104.264 430.922 104.025 430.971 103.783 430.972C103.394 430.978 103.015 430.86 102.713 430.641H102.743ZM11.2826 428.07C11.0248 427.758 10.9158 427.366 10.9796 426.982C11.0433 426.597 11.2745 426.251 11.6226 426.019C11.9741 425.79 12.4127 425.695 12.8421 425.756C13.2715 425.816 13.6565 426.027 13.9126 426.342C14.0405 426.497 14.1327 426.674 14.1839 426.861C14.2351 427.049 14.2442 427.244 14.2107 427.435C14.1772 427.625 14.1018 427.808 13.9888 427.973C13.8759 428.137 13.7276 428.28 13.5526 428.393C13.2621 428.581 12.9109 428.678 12.5526 428.67C12.2987 428.668 12.049 428.612 11.8233 428.508C11.5976 428.404 11.4022 428.254 11.2526 428.07H11.2826ZM106.763 425.974C106.581 425.871 106.425 425.736 106.302 425.578C106.18 425.419 106.094 425.241 106.049 425.052C106.004 424.864 106.002 424.669 106.042 424.48C106.082 424.291 106.164 424.111 106.283 423.95C106.397 423.787 106.546 423.647 106.721 423.536C106.896 423.425 107.094 423.347 107.303 423.305C107.512 423.264 107.729 423.259 107.94 423.293C108.151 423.327 108.352 423.398 108.533 423.502C108.715 423.605 108.872 423.739 108.996 423.897C109.119 424.055 109.207 424.233 109.253 424.421C109.3 424.609 109.304 424.804 109.266 424.994C109.229 425.183 109.149 425.364 109.033 425.527C108.884 425.736 108.679 425.908 108.435 426.027C108.192 426.146 107.92 426.208 107.643 426.207C107.32 426.213 107.003 426.132 106.733 425.974H106.763ZM7.62262 422.974C7.51602 422.806 7.44748 422.622 7.42096 422.43C7.39443 422.239 7.41045 422.045 7.46809 421.859C7.52573 421.674 7.62385 421.5 7.75678 421.349C7.88972 421.197 8.05484 421.07 8.24262 420.976C8.61954 420.785 9.06559 420.735 9.48339 420.838C9.90119 420.94 10.2568 421.186 10.4726 421.523C10.686 421.86 10.7417 422.26 10.6274 422.634C10.5131 423.008 10.2382 423.327 9.86262 423.52C9.61664 423.648 9.33726 423.716 9.05262 423.717C8.76231 423.717 8.47723 423.648 8.22615 423.518C7.97508 423.387 7.76689 423.199 7.62262 422.974ZM110.173 420.914C109.98 420.829 109.808 420.711 109.666 420.566C109.524 420.421 109.416 420.253 109.347 420.071C109.278 419.888 109.251 419.696 109.265 419.504C109.28 419.312 109.337 419.124 109.433 418.952C109.527 418.779 109.659 418.625 109.821 418.498C109.982 418.371 110.17 418.274 110.374 418.213C110.577 418.151 110.792 418.126 111.007 418.139C111.221 418.152 111.43 418.203 111.623 418.289C112.012 418.461 112.309 418.764 112.45 419.131C112.591 419.499 112.563 419.902 112.373 420.251C112.236 420.498 112.026 420.707 111.764 420.852C111.502 420.998 111.201 421.075 110.893 421.075C110.629 421.08 110.368 421.028 110.133 420.923L110.173 420.914ZM4.62262 417.6C4.4556 417.241 4.45327 416.837 4.61613 416.477C4.77898 416.116 5.0939 415.828 5.49262 415.674C5.89337 415.524 6.34381 415.522 6.74627 415.668C7.14873 415.814 7.47079 416.096 7.64262 416.453C7.80903 416.813 7.80993 417.217 7.64512 417.578C7.48031 417.939 7.16313 418.227 6.76262 418.379C6.56085 418.458 6.34274 418.497 6.12262 418.495C5.80254 418.492 5.49031 418.406 5.22398 418.247C4.95764 418.088 4.7487 417.863 4.62262 417.6ZM112.903 415.611C112.699 415.547 112.511 415.447 112.35 415.318C112.189 415.188 112.059 415.032 111.966 414.857C111.873 414.682 111.82 414.493 111.809 414.299C111.798 414.106 111.83 413.912 111.903 413.73C112.048 413.363 112.349 413.063 112.741 412.895C113.133 412.727 113.583 412.705 113.993 412.834C114.197 412.899 114.384 412.998 114.545 413.128C114.706 413.257 114.836 413.414 114.929 413.589C115.022 413.763 115.076 413.953 115.087 414.146C115.097 414.34 115.065 414.533 114.993 414.715C114.882 415.002 114.674 415.25 114.398 415.425C114.121 415.6 113.791 415.693 113.453 415.692C113.252 415.684 113.055 415.641 112.873 415.566L112.903 415.611ZM2.31262 411.849C2.19804 411.48 2.25022 411.085 2.4579 410.75C2.66558 410.415 3.01209 410.166 3.42262 410.058C3.83481 409.96 4.27331 410.009 4.64617 410.194C5.01904 410.379 5.2973 410.687 5.42262 411.052C5.5368 411.423 5.48325 411.818 5.27356 412.154C5.06388 412.489 4.71499 412.737 4.30262 412.843C4.15397 412.886 3.9987 412.907 3.84262 412.906C3.4951 412.899 3.15919 412.793 2.88393 412.603C2.60868 412.412 2.4085 412.148 2.31262 411.849ZM114.903 409.959C114.689 409.916 114.488 409.835 114.31 409.721C114.133 409.607 113.983 409.462 113.869 409.295C113.755 409.128 113.68 408.942 113.648 408.748C113.616 408.555 113.628 408.357 113.683 408.168C113.732 407.977 113.823 407.798 113.951 407.639C114.078 407.481 114.24 407.347 114.426 407.245C114.613 407.143 114.82 407.076 115.035 407.047C115.251 407.017 115.471 407.027 115.683 407.075C115.896 407.118 116.097 407.199 116.275 407.313C116.452 407.427 116.603 407.572 116.716 407.739C116.83 407.906 116.905 408.092 116.937 408.286C116.969 408.48 116.958 408.677 116.903 408.866C116.821 409.189 116.618 409.476 116.329 409.681C116.04 409.886 115.682 409.997 115.313 409.995C115.175 409.999 115.037 409.987 114.903 409.959ZM0.782619 405.955C0.710166 405.572 0.810562 405.178 1.06178 404.861C1.313 404.543 1.69451 404.328 2.12262 404.263C2.33411 404.229 2.55088 404.233 2.7605 404.275C2.97012 404.317 3.16844 404.396 3.34407 404.506C3.5197 404.617 3.66917 404.758 3.7839 404.92C3.89864 405.083 3.97636 405.264 4.01262 405.454C4.08524 405.838 3.98513 406.233 3.73411 406.552C3.48309 406.871 3.10152 407.088 2.67262 407.156H2.39262C2.01011 407.155 1.63982 407.035 1.34582 406.816C1.05181 406.597 0.85259 406.292 0.782619 405.955ZM116.203 404.164C115.989 404.143 115.782 404.084 115.594 403.991C115.406 403.898 115.24 403.773 115.106 403.622C114.972 403.471 114.873 403.298 114.814 403.113C114.755 402.928 114.738 402.734 114.763 402.543C114.786 402.351 114.852 402.166 114.956 401.998C115.06 401.829 115.2 401.68 115.368 401.561C115.536 401.441 115.729 401.352 115.936 401.299C116.143 401.246 116.359 401.231 116.573 401.253C116.786 401.274 116.993 401.333 117.181 401.426C117.37 401.519 117.535 401.645 117.669 401.795C117.803 401.946 117.902 402.119 117.961 402.304C118.02 402.489 118.038 402.683 118.013 402.874C117.968 403.231 117.779 403.561 117.48 403.801C117.181 404.04 116.794 404.173 116.393 404.173H116.203V404.164ZM0.0026184 399.909C-0.0219699 399.519 0.127392 399.135 0.417951 398.843C0.708511 398.551 1.11656 398.374 1.55262 398.351C1.98707 398.331 2.41258 398.466 2.73657 398.726C3.06055 398.986 3.2568 399.35 3.28262 399.739C3.30456 400.127 3.15533 400.507 2.86718 400.797C2.57902 401.087 2.17507 401.263 1.74262 401.289H1.62262C1.21182 401.283 0.818118 401.141 0.518508 400.889C0.218899 400.637 0.034941 400.294 0.0026184 399.927V399.909ZM115.123 396.828V396.774V396.721C115.121 396.528 115.162 396.337 115.244 396.159C115.325 395.981 115.445 395.819 115.596 395.683C115.748 395.546 115.928 395.438 116.127 395.364C116.325 395.29 116.538 395.252 116.753 395.252C117.188 395.252 117.605 395.407 117.912 395.682C118.22 395.958 118.393 396.331 118.393 396.721V396.774V396.828C118.393 397.216 118.221 397.589 117.916 397.864C117.61 398.139 117.196 398.295 116.763 398.297C116.331 398.297 115.917 398.145 115.61 397.873C115.303 397.602 115.128 397.233 115.123 396.846V396.828ZM1.54262 395.422C1.32845 395.412 1.11866 395.364 0.925273 395.281C0.731882 395.198 0.558692 395.081 0.415628 394.938C0.272564 394.795 0.16244 394.628 0.0915676 394.447C0.0206955 394.265 -0.00953206 394.073 0.0026184 393.881C0.0309224 393.497 0.227556 393.138 0.549701 392.883C0.871847 392.628 1.29342 392.498 1.72262 392.52C1.9381 392.53 2.14919 392.578 2.34379 392.662C2.53839 392.745 2.71269 392.863 2.85668 393.007C3.00067 393.15 3.11153 393.318 3.18291 393.501C3.25428 393.683 3.28477 393.877 3.27262 394.069C3.23974 394.44 3.05118 394.786 2.74497 395.037C2.43876 395.288 2.03768 395.425 1.62262 395.422H1.53262H1.54262ZM114.743 391.024C114.718 390.833 114.735 390.639 114.794 390.454C114.853 390.269 114.952 390.096 115.086 389.945C115.22 389.794 115.386 389.669 115.574 389.576C115.762 389.483 115.969 389.424 116.183 389.403C116.396 389.38 116.612 389.396 116.819 389.449C117.026 389.502 117.219 389.591 117.387 389.71C117.556 389.83 117.696 389.979 117.799 390.147C117.903 390.316 117.969 390.501 117.993 390.693C118.019 390.883 118.003 391.077 117.945 391.262C117.887 391.447 117.789 391.62 117.656 391.771C117.523 391.922 117.358 392.048 117.17 392.141C116.982 392.234 116.776 392.293 116.563 392.314H116.373C115.971 392.316 115.583 392.186 115.282 391.948C114.982 391.71 114.789 391.381 114.743 391.024ZM2.10262 389.555C1.67575 389.487 1.29587 389.272 1.04511 388.955C0.794355 388.638 0.692878 388.246 0.762619 387.862C0.836274 387.484 1.07168 387.146 1.41892 386.92C1.76616 386.694 2.19791 386.598 2.62262 386.653C3.05094 386.721 3.43168 386.938 3.68111 387.257C3.93053 387.576 4.02819 387.971 3.95262 388.355C3.8887 388.696 3.6918 389.005 3.39698 389.228C3.10216 389.451 2.72854 389.574 2.34262 389.573L2.10262 389.555ZM113.623 385.354C113.571 385.164 113.561 384.967 113.595 384.774C113.629 384.58 113.705 384.395 113.82 384.228C113.934 384.062 114.084 383.917 114.262 383.803C114.439 383.689 114.64 383.607 114.853 383.563C115.064 383.516 115.284 383.507 115.499 383.537C115.714 383.567 115.921 383.635 116.107 383.736C116.293 383.838 116.454 383.971 116.582 384.129C116.71 384.287 116.802 384.466 116.853 384.656C116.905 384.845 116.914 385.042 116.881 385.235C116.848 385.427 116.773 385.612 116.659 385.779C116.546 385.945 116.397 386.09 116.22 386.205C116.044 386.32 115.844 386.402 115.633 386.447C115.508 386.475 115.381 386.49 115.253 386.492C114.878 386.494 114.513 386.382 114.218 386.176C113.922 385.97 113.712 385.68 113.623 385.354ZM3.36262 383.742C2.95644 383.628 2.61475 383.378 2.40817 383.045C2.20159 382.711 2.1459 382.32 2.25262 381.951C2.37588 381.584 2.65329 381.274 3.02638 381.087C3.39947 380.9 3.8391 380.85 4.25262 380.947C4.66352 381.056 5.01075 381.304 5.22005 381.639C5.42936 381.974 5.48411 382.368 5.37262 382.739C5.27285 383.045 5.06478 383.313 4.77978 383.504C4.49479 383.694 4.14832 383.797 3.79262 383.796C3.65563 383.803 3.51819 383.797 3.38262 383.778L3.36262 383.742ZM111.823 379.864C111.75 379.682 111.718 379.489 111.729 379.296C111.74 379.104 111.794 378.915 111.887 378.741C111.98 378.567 112.11 378.411 112.271 378.282C112.432 378.154 112.619 378.055 112.823 377.992C113.232 377.863 113.683 377.884 114.074 378.052C114.466 378.22 114.768 378.521 114.913 378.887C115.057 379.254 115.032 379.658 114.845 380.009C114.657 380.36 114.322 380.63 113.913 380.759C113.733 380.816 113.543 380.846 113.353 380.849C113.023 380.846 112.703 380.753 112.433 380.584C112.164 380.414 111.958 380.176 111.843 379.899L111.823 379.864ZM5.41262 378.189C5.21468 378.114 5.03509 378.006 4.88415 377.869C4.73322 377.732 4.61391 377.57 4.53307 377.392C4.45224 377.214 4.41147 377.023 4.4131 376.831C4.41474 376.639 4.45876 376.449 4.54262 376.272C4.71052 375.914 5.02993 375.63 5.43097 375.482C5.83201 375.334 6.28204 375.335 6.68262 375.484C7.08313 375.636 7.40031 375.924 7.56512 376.284C7.72993 376.645 7.72903 377.049 7.56262 377.409C7.43802 377.676 7.22806 377.903 6.95929 378.062C6.69051 378.222 6.37499 378.306 6.05262 378.305C5.83227 378.309 5.61361 378.27 5.41262 378.189ZM109.343 374.606C109.151 374.256 109.122 373.853 109.26 373.484C109.399 373.115 109.694 372.81 110.083 372.635C110.275 372.549 110.484 372.499 110.699 372.485C110.913 372.472 111.128 372.497 111.331 372.559C111.535 372.62 111.723 372.717 111.884 372.844C112.046 372.971 112.178 373.125 112.273 373.298C112.368 373.47 112.425 373.657 112.439 373.848C112.454 374.039 112.426 374.231 112.357 374.413C112.288 374.594 112.18 374.762 112.039 374.906C111.897 375.049 111.725 375.167 111.533 375.251C111.307 375.356 111.057 375.412 110.803 375.412C110.5 375.409 110.205 375.333 109.947 375.191C109.69 375.049 109.481 374.847 109.343 374.606ZM8.14262 372.814C7.95568 372.72 7.79152 372.593 7.65958 372.441C7.52765 372.289 7.43054 372.115 7.37385 371.929C7.31716 371.744 7.302 371.55 7.32925 371.359C7.3565 371.168 7.42561 370.984 7.53262 370.817C7.63685 370.649 7.777 370.502 7.94504 370.382C8.11309 370.263 8.30573 370.175 8.51194 370.122C8.71815 370.07 8.93388 370.055 9.14677 370.077C9.35966 370.099 9.56554 370.159 9.75262 370.253C9.9404 370.347 10.1055 370.473 10.2385 370.625C10.3714 370.776 10.4695 370.95 10.5271 371.136C10.5848 371.321 10.6008 371.516 10.5743 371.707C10.5478 371.898 10.4792 372.083 10.3726 372.25C10.2299 372.477 10.0221 372.666 9.77067 372.796C9.51923 372.927 9.23334 372.995 8.94262 372.994C8.66332 372.996 8.38806 372.934 8.14262 372.814ZM106.143 369.671C105.909 369.344 105.83 368.947 105.921 368.568C106.013 368.189 106.269 367.857 106.633 367.646C106.996 367.436 107.438 367.364 107.861 367.444C108.285 367.525 108.655 367.752 108.893 368.076C109.01 368.238 109.091 368.419 109.131 368.609C109.17 368.798 109.168 368.993 109.123 369.182C109.078 369.371 108.993 369.55 108.871 369.709C108.749 369.868 108.593 370.004 108.413 370.109C108.148 370.263 107.838 370.344 107.523 370.342C107.254 370.336 106.991 370.27 106.758 370.152C106.524 370.033 106.327 369.865 106.183 369.662L106.143 369.671ZM11.5126 367.763C11.3372 367.651 11.1882 367.51 11.0745 367.347C10.9607 367.183 10.8843 367.001 10.8499 366.811C10.8155 366.621 10.8236 366.427 10.8739 366.239C10.9241 366.052 11.0155 365.876 11.1426 365.72C11.2687 365.564 11.4279 365.431 11.6112 365.33C11.7945 365.229 11.9983 365.161 12.211 365.13C12.4236 365.099 12.641 365.106 12.8506 365.151C13.0602 365.195 13.258 365.276 13.4326 365.389C13.7838 365.618 14.019 365.963 14.0866 366.348C14.1541 366.733 14.0483 367.125 13.7926 367.44C13.6401 367.628 13.4399 367.78 13.2086 367.884C12.9773 367.989 12.7216 368.042 12.4626 368.04C12.1335 368.032 11.8155 367.931 11.5526 367.754L11.5126 367.763ZM102.373 365.076C102.229 364.924 102.121 364.748 102.056 364.558C101.991 364.368 101.969 364.168 101.993 363.971C102.016 363.773 102.084 363.582 102.192 363.408C102.3 363.235 102.447 363.083 102.623 362.962C102.957 362.716 103.387 362.599 103.818 362.636C104.249 362.673 104.646 362.861 104.923 363.159C105.06 363.308 105.163 363.479 105.226 363.664C105.29 363.848 105.312 364.042 105.291 364.234C105.271 364.426 105.208 364.613 105.107 364.784C105.006 364.954 104.869 365.105 104.703 365.228C104.419 365.434 104.068 365.55 103.703 365.559C103.458 365.564 103.215 365.52 102.992 365.431C102.769 365.341 102.571 365.207 102.413 365.04L102.373 365.076ZM15.5226 363.123C15.3626 362.994 15.2329 362.838 15.1411 362.663C15.0493 362.489 14.9972 362.3 14.9879 362.107C14.9786 361.915 15.0123 361.722 15.0869 361.541C15.1615 361.361 15.2757 361.195 15.4226 361.054C15.715 360.767 16.1221 360.596 16.5549 360.578C16.9878 360.559 17.4112 360.695 17.7326 360.955C17.8918 361.086 18.0206 361.243 18.1118 361.418C18.2029 361.593 18.2547 361.783 18.2639 361.976C18.2732 362.169 18.2399 362.362 18.1659 362.543C18.0919 362.725 17.9786 362.891 17.8326 363.033C17.6783 363.183 17.4912 363.302 17.283 363.384C17.0748 363.466 16.8499 363.508 16.6226 363.508C16.2232 363.491 15.8453 363.341 15.5626 363.087L15.5226 363.123ZM98.0426 360.866C97.7385 360.592 97.5678 360.222 97.5678 359.836C97.5678 359.45 97.7385 359.079 98.0426 358.806C98.19 358.665 98.3672 358.553 98.5637 358.475C98.7602 358.396 98.9721 358.354 99.1871 358.35C99.4022 358.345 99.616 358.38 99.8161 358.45C100.016 358.521 100.199 358.626 100.353 358.761C100.505 358.897 100.626 359.059 100.708 359.238C100.791 359.416 100.833 359.607 100.833 359.8C100.833 359.993 100.791 360.184 100.708 360.362C100.626 360.541 100.505 360.703 100.353 360.839C100.2 360.981 100.016 361.093 99.8135 361.17C99.6107 361.247 99.3928 361.287 99.1726 361.287C98.7568 361.267 98.3657 361.103 98.0826 360.83L98.0426 360.866ZM20.1026 358.895C19.9605 358.75 19.8519 358.582 19.783 358.399C19.7141 358.216 19.6863 358.023 19.7011 357.831C19.716 357.638 19.7733 357.451 19.8697 357.278C19.966 357.106 20.0996 356.952 20.2626 356.826C20.4241 356.7 20.6117 356.604 20.8148 356.543C21.0178 356.482 21.2322 356.458 21.4458 356.471C21.6594 356.484 21.8679 356.535 22.0595 356.621C22.2512 356.706 22.4221 356.825 22.5626 356.969C22.7053 357.114 22.8147 357.282 22.8844 357.464C22.9541 357.647 22.9828 357.84 22.9689 358.032C22.9549 358.224 22.8986 358.412 22.8031 358.585C22.7077 358.758 22.5749 358.912 22.4126 359.039C22.1154 359.269 21.7357 359.396 21.3426 359.397C21.1116 359.388 20.8853 359.336 20.6785 359.243C20.4716 359.15 20.289 359.02 20.1426 358.859L20.1026 358.895ZM93.2126 357.104C93.0422 356.987 92.8992 356.841 92.7919 356.675C92.6845 356.508 92.6149 356.325 92.5871 356.134C92.5592 355.943 92.5736 355.75 92.6295 355.564C92.6853 355.379 92.7816 355.205 92.9126 355.053C93.1761 354.745 93.5648 354.543 93.9937 354.491C94.4227 354.439 94.8573 354.541 95.2026 354.775C95.3741 354.892 95.5182 355.038 95.6266 355.205C95.735 355.372 95.8056 355.556 95.8344 355.748C95.8632 355.939 95.8496 356.133 95.7944 356.32C95.7392 356.507 95.6434 356.682 95.5126 356.835C95.3574 357.013 95.1584 357.157 94.9312 357.254C94.704 357.352 94.4547 357.402 94.2026 357.399C93.8577 357.392 93.5247 357.285 93.2526 357.095L93.2126 357.104ZM25.2126 355.133C24.974 354.814 24.8833 354.425 24.9598 354.047C25.0363 353.669 25.2741 353.333 25.6226 353.109C25.9823 352.888 26.4252 352.803 26.8543 352.874C27.2835 352.944 27.664 353.164 27.9126 353.485C28.1524 353.807 28.2416 354.2 28.1612 354.58C28.0808 354.961 27.8372 355.297 27.4826 355.518C27.2106 355.691 26.886 355.785 26.5526 355.787C26.2876 355.781 26.0282 355.718 25.7966 355.602C25.5649 355.487 25.368 355.323 25.2226 355.124L25.2126 355.133ZM87.9626 353.879C87.5901 353.678 87.3218 353.353 87.2168 352.975C87.1118 352.598 87.1786 352.198 87.4026 351.864C87.6184 351.53 87.9722 351.285 88.3876 351.183C88.803 351.081 89.2466 351.129 89.6226 351.318C89.9931 351.52 90.2596 351.845 90.3644 352.222C90.4693 352.6 90.4039 352.999 90.1826 353.333C90.0371 353.552 89.8306 353.733 89.5834 353.858C89.3362 353.984 89.0568 354.05 88.7726 354.049C88.4937 354.048 88.2193 353.987 87.9726 353.87L87.9626 353.879ZM30.7426 351.936C30.6415 351.766 30.5788 351.58 30.5583 351.388C30.5378 351.197 30.5597 351.003 30.6229 350.819C30.6861 350.635 30.7893 350.464 30.9266 350.316C31.0638 350.168 31.2324 350.046 31.4226 349.956C31.8049 349.775 32.2516 349.736 32.6655 349.849C33.0794 349.961 33.427 350.215 33.6326 350.556C33.8346 350.901 33.8765 351.303 33.7492 351.676C33.6218 352.048 33.3356 352.36 32.9526 352.545C32.7184 352.656 32.4576 352.714 32.1926 352.715C31.8949 352.715 31.603 352.641 31.349 352.502C31.0949 352.363 30.8886 352.164 30.7526 351.927L30.7426 351.936ZM82.3126 351.21C82.1163 351.131 81.9394 351.018 81.7922 350.877C81.645 350.736 81.5304 350.57 81.4551 350.39C81.3798 350.209 81.3452 350.017 81.3534 349.824C81.3615 349.631 81.4123 349.442 81.5026 349.266C81.5901 349.091 81.7156 348.933 81.8719 348.801C82.0283 348.669 82.2122 348.567 82.4132 348.499C82.6142 348.432 82.8281 348.4 83.0426 348.408C83.2571 348.415 83.4678 348.46 83.6626 348.541C84.0574 348.703 84.3644 348.998 84.5162 349.363C84.668 349.727 84.6524 350.131 84.4726 350.485C84.3462 350.746 84.1385 350.97 83.8744 351.128C83.6102 351.287 83.3007 351.375 82.9826 351.38C82.7509 351.363 82.526 351.302 82.3226 351.201L82.3126 351.21ZM36.6226 349.311C36.4662 348.948 36.4773 348.544 36.6536 348.187C36.8299 347.831 37.1569 347.553 37.5626 347.412C37.9673 347.274 38.4165 347.284 38.8131 347.44C39.2097 347.596 39.522 347.885 39.6826 348.245C39.839 348.609 39.8279 349.013 39.6516 349.369C39.4753 349.725 39.1484 350.004 38.7426 350.144C38.5553 350.212 38.3547 350.246 38.1526 350.243C37.8226 350.243 37.4999 350.155 37.227 349.989C36.954 349.822 36.7434 349.586 36.6226 349.311ZM76.3426 349.132C75.9292 349.013 75.5854 348.752 75.3867 348.406C75.1879 348.06 75.1505 347.658 75.2826 347.287C75.4178 346.916 75.7113 346.608 76.0991 346.43C76.4869 346.252 76.9375 346.219 77.3526 346.338C77.7567 346.466 78.0881 346.731 78.2753 347.076C78.4624 347.422 78.4902 347.819 78.3526 348.183C78.2468 348.479 78.0387 348.737 77.7583 348.921C77.478 349.104 77.1398 349.203 76.7926 349.204C76.646 349.2 76.501 349.176 76.3626 349.132H76.3426ZM42.8226 347.341C42.7668 347.155 42.7525 346.961 42.7807 346.77C42.8089 346.579 42.8788 346.395 42.9866 346.229C43.0945 346.062 43.238 345.917 43.4089 345.8C43.5798 345.683 43.7748 345.598 43.9826 345.549C44.4016 345.451 44.8471 345.505 45.2218 345.699C45.5965 345.894 45.87 346.214 45.9826 346.588C46.0923 346.965 46.0306 347.365 45.8113 347.701C45.5919 348.037 45.2328 348.281 44.8126 348.38C44.6761 348.415 44.5347 348.433 44.3926 348.433C44.0356 348.426 43.691 348.314 43.4112 348.116C43.1315 347.917 42.9318 347.641 42.8426 347.332L42.8226 347.341ZM70.1526 347.699C69.7259 347.615 69.3537 347.384 69.1175 347.054C68.8813 346.725 68.8005 346.326 68.8926 345.943C68.9794 345.562 69.2313 345.228 69.5931 345.013C69.9549 344.798 70.397 344.72 70.8226 344.797C71.2459 344.875 71.6177 345.099 71.8574 345.421C72.0971 345.743 72.1852 346.137 72.1026 346.517C72.0306 346.849 71.8316 347.149 71.5397 347.365C71.2477 347.581 70.8811 347.699 70.5026 347.699H70.1526ZM49.2226 346.006C49.1915 345.814 49.2031 345.618 49.2566 345.429C49.3102 345.241 49.4047 345.064 49.5347 344.909C49.6648 344.753 49.8278 344.622 50.0145 344.523C50.2011 344.424 50.4078 344.359 50.6226 344.331C50.8355 344.303 51.0524 344.314 51.2608 344.361C51.4692 344.409 51.6651 344.493 51.8371 344.609C52.009 344.724 52.1537 344.869 52.2628 345.035C52.3719 345.202 52.4432 345.385 52.4726 345.576C52.5037 345.766 52.4927 345.96 52.4402 346.146C52.3877 346.332 52.2946 346.507 52.1664 346.661C52.0382 346.815 51.8774 346.945 51.6932 347.043C51.5089 347.141 51.3048 347.206 51.0926 347.233H50.8526C50.4643 347.231 50.0894 347.106 49.7946 346.88C49.4998 346.653 49.3042 346.341 49.2426 345.997L49.2226 346.006ZM63.8326 346.902C63.4008 346.87 63.0007 346.686 62.7196 346.391C62.4386 346.095 62.2994 345.712 62.3326 345.325C62.3503 345.133 62.4101 344.946 62.5086 344.774C62.6071 344.602 62.7424 344.45 62.9068 344.325C63.0712 344.2 63.2614 344.106 63.4666 344.047C63.6718 343.988 63.8879 343.966 64.1026 343.982C64.3174 343.998 64.5265 344.051 64.7181 344.139C64.9098 344.228 65.0801 344.349 65.2194 344.496C65.3587 344.643 65.4642 344.814 65.53 344.998C65.5957 345.181 65.6204 345.375 65.6026 345.567C65.5674 345.934 65.3788 346.275 65.0747 346.522C64.7706 346.77 64.3734 346.905 63.9626 346.902H63.8326ZM55.7526 345.325C55.746 345.133 55.7819 344.941 55.8583 344.761C55.9348 344.581 56.0502 344.416 56.198 344.277C56.3458 344.137 56.523 344.024 56.7194 343.946C56.9159 343.868 57.1277 343.825 57.3426 343.821C57.5575 343.813 57.7719 343.844 57.9734 343.912C58.1748 343.979 58.3594 344.082 58.5165 344.213C58.6736 344.345 58.8001 344.503 58.8887 344.678C58.9773 344.854 59.0262 345.043 59.0326 345.236C59.0393 345.429 59.0034 345.621 58.9271 345.801C58.8508 345.982 58.7355 346.147 58.5879 346.288C58.4402 346.428 58.263 346.542 58.0665 346.621C57.87 346.7 57.658 346.744 57.4426 346.75C57.0101 346.754 56.5927 346.607 56.2804 346.339C55.968 346.071 55.7857 345.704 55.7726 345.316L55.7526 345.325Z" fill="#FCCF35"/>
<rect x="1175.79" y="129.371" width="69.2348" height="69.2348" rx="34.6174" transform="rotate(10.0488 1175.79 129.371)" fill="black" fill-opacity="0.98"/>
<path d="M1205.48 21.4674L1204.8 21.2046L1140.94 153.604L1141.62 153.867L1205.48 21.4674Z" fill="#3F3F3F"/>
<path d="M1227.27 29.8988L1226.59 29.636L1162.73 162.036L1163.41 162.299L1227.27 29.8988Z" fill="#3F3F3F"/>
<path d="M1249.05 38.3288L1248.37 38.0659L1184.52 170.466L1185.2 170.728L1249.05 38.3288Z" fill="#3F3F3F"/>
<path d="M1270.85 46.7602L1270.17 46.4973L1206.31 178.897L1206.99 179.16L1270.85 46.7602Z" fill="#3F3F3F"/>
<path d="M1292.64 55.1952L1291.96 54.9324L1228.1 187.332L1228.78 187.595L1292.64 55.1952Z" fill="#3F3F3F"/>
<path d="M1314.43 63.6266L1313.76 63.3638L1249.9 195.763L1250.58 196.026L1314.43 63.6266Z" fill="#3F3F3F"/>
<path d="M1325.27 88.1147L1177.45 30.9182L1177.16 31.5267L1324.98 88.7231L1325.27 88.1147Z" fill="#3F3F3F"/>
<path d="M1315.86 107.634L1168.04 50.4375L1167.74 51.046L1315.56 108.242L1315.86 107.634Z" fill="#3F3F3F"/>
<path d="M1306.44 127.146L1158.63 69.9497L1158.33 70.5582L1306.15 127.755L1306.44 127.146Z" fill="#3F3F3F"/>
<path d="M1297.03 146.667L1149.21 89.4707L1148.92 90.0792L1296.74 147.276L1297.03 146.667Z" fill="#3F3F3F"/>
<path d="M1287.61 166.186L1139.8 108.99L1139.5 109.598L1287.32 166.795L1287.61 166.186Z" fill="#3F3F3F"/>
<path d="M1278.2 185.709L1130.38 128.512L1130.09 129.121L1277.91 186.317L1278.2 185.709Z" fill="#3F3F3F"/>
<rect x="1190.93" y="159.877" width="69.2348" height="69.2348" rx="34.6174" transform="rotate(10.0488 1190.93 159.877)" fill="#FCCF35"/>
<defs>
<clipPath id="clip0_257_291">
<rect width="17.2302" height="37.7807" fill="white" transform="translate(772 163.691) rotate(-42.7292)"/>
</clipPath>
<clipPath id="clip1_257_291">
<rect width="11.4291" height="25.0606" fill="white" transform="translate(311.359 172.965) rotate(121.156)"/>
</clipPath>
</defs>
</svg>
