<svg width="279" height="79" viewBox="0 0 279 79" fill="none" xmlns="http://www.w3.org/2000/svg">
<path d="M277.3 27C276.6 27.5 275.9 28.1 275.1 28.6C273 29.8 270.7 30.9 269 32.7C268.6 33.1 268 33.4 267.5 33.7C266.3 34.4 264.8 34.8 264 35.8C262.2 37.9 259.4 38.6 257.7 40.8C257.5 41.1 257 41.2 256.7 41.3C255.3 41.8 254.4 42.8 253.4 43.8C253.1 44.1 252.8 44.7 252.4 44.9C250.2 45.9 248.5 47.6 246.6 49.1C242.6 52.2 238.2 54.7 234 57.7C232.7 58.6 231.2 59.2 229.5 59.2C229.4 58.5 229.2 58 229.2 57.4C229.4 54.8 230.1 52.3 231.5 50.1C231.8 49.6 232.1 49.1 232.4 48.6C234.1 44.9 236 41.3 238.2 37.9C238.4 37.6 238.6 37.2 238.8 36.9C240.6 33 241.6 28.8 242.6 24.7C242.7 24.4 242.7 24.1 242.7 23.8C242.2 20.7 241.7 17.7 238.8 15.7C238.2 15.3 237.8 14.7 237.3 14.3C236 13.3 234.8 12.3 233.4 11.6C231.6 10.6 229.5 10.3 227.6 10.7C225.4 11.1 223.1 11.9 221.2 13C219.8 13.7 218.5 14.1 217 14.1C216.6 14.5 216.3 14.9 216 15.3C215.3 16.2 214.6 16.9 213.3 16.8C213 16.8 212.7 16.9 212.5 17.1C211.2 18.1 209.6 18.4 208.4 19.5C207.4 20.4 206.2 21.1 205 21.9C202.7 23.5 200.3 24.9 198.1 26.5C195.3 28.5 192.5 30.6 189.8 32.8C185.5 36.3 181.1 39.8 176.9 43.5C172.9 46.9 169.1 50.6 165.1 54.1C163.4 55.6 161.4 56.8 159.7 58.4C157.5 60.6 154.9 62.2 152.3 64C151.3 64.7 150.2 65.1 149 65.4C147.2 65.9 146.3 65 146.5 63.2C146.6 62.5 146.7 61.8 147 61.2C148.6 57.6 150.2 53.9 152 50.4C153.3 47.8 154.3 45.1 155.4 42.4C156.6 39.5 157.8 36.5 159.7 33.9C160.5 32.9 160.9 31.9 161.1 30.7C161.4 29 161.7 27.4 162 26.1C161.8 24.5 161.6 23.2 161.4 21.8C161.3 21 161.1 20.2 160.8 19.5C160.3 18.4 159.6 17.4 159 16.4C158.6 15.8 158.3 15.1 157.8 14.8C156.5 13.8 155.2 12.9 153.8 12.2C152.1 11.3 150.3 10.5 148.4 11.7C148.2 11.8 148 11.9 147.8 11.8C146 11.2 144.5 12.1 143 12.9C142 13.4 141 13.7 140 14.2C137.9 15.2 135.6 16.1 133.6 17.4C131.9 18.6 130 19.5 128.2 20.6C127.6 20.9 127.1 21.4 126.5 21.8C125.8 22.3 125 22.8 124.3 23.3C121.6 25 118.9 26.6 116.3 28.5C112.1 31.7 108 35 103.9 38.4C100.7 41.1 97.5 43.8 94.4 46.6C92.7 48.1 91 49.7 89.2 51.1C87.2 52.7 85 54.1 83.3 56.1C82.9 56.6 82.2 56.9 81.6 57.3C81.2 57.6 80.7 57.8 80.4 58.1C78.3 60.3 75.5 61.5 73.1 63.3C72.7 63.6 72.2 63.9 71.8 63.4C71.8 63.2 71.7 63 71.8 62.8C72.7 60.9 73.6 59 74.5 57.2C74.7 56.8 75.2 56.5 75.6 56.3C76.9 55.5 76.9 55.5 77.7 54.2C77.4 54.1 77 53.9 76.5 53.7C77.9 51.8 79.3 49.9 79.7 47.6C79.7 47.3 80 47.1 80.1 46.8C80.8 45.7 81.5 44.7 82.2 43.6C82.8 41.5 84.1 39.8 85.2 37.9C87 35 89.1 32.3 90.6 29.2C90.6 28.2 90.9 27.3 91.8 26.8C91.9 25 92.7 23.6 94.2 22.6C94.4 22.2 94.6 21.8 94.8 21.4C95.1 20.9 95.3 20.4 95.7 20C96.8 18.7 97.4 17.3 97.4 15.7C97.4 15.3 97.6 14.9 97.7 14.5C98.4 11 97.1 8.10003 94.7 5.50003C93.2 3.90003 91.2 3.20003 89.5 2.00003C86.3 -0.299971 82.9 0.500029 79.5 1.00003C79 1.10003 78.4 1.50003 78 1.80003C77.4 2.40003 76.8 2.90003 75.9 2.90003C74.6 2.90003 74.4 4.00003 73.9 4.90003H71.6C69.7 6.10003 67.9 7.10003 66.3 8.10003C65.4 8.70003 64.5 9.30003 63.7 10.1C62.5 11.4 61.6 13 59.5 13.1C59.1 13.1 58.7 13.7 58.3 14C56.8 15 55.4 16 53.9 17C53.5 17.3 52.9 17.4 52.7 17.8C51.8 19.1 50.4 19.6 49 20.1C48.7 21 48.4 21.8 48 22.7C46.9 21.9 46 22.1 45.3 23.1C44.6 24 43.8 25 43 25.8C42.4 26.3 41.7 27 41 27C39.6 27.1 38.9 27.9 38 28.7C35.5 31 32.8 33 30.1 35.1C27.8 36.8 25.4 38.4 24.2 41.1C23 40.7 22 40.9 21.1 41.6C20.5 42 20 42.5 19.5 42.9C18.1 44.2 16.8 45.6 15.4 46.9C14.1 48.2 12.3 49.3 10.7 49.8C10.9 49.5 11 49.2 11.2 49C13 46.4 14.8 43.8 16.6 41.1C17.3 40.1 17.6 38.9 18.3 38C20.6 34.8 22.9 31.6 25.3 28.4C27.6 25.4 29.4 22 31.2 18.7C31.6 18 31.8 17.2 32.1 16.5C32.5 15.5 32.4 14.6 32 13.6C31.4 12.2 30.8 10.9 30.2 9.50003C29.7 8.40003 28.9 7.50003 27.8 6.90003C26.9 6.40003 25.9 5.80003 25.1 5.00003C23.9 3.90003 22.5 3.10003 21.1 2.30003C18.5 0.900029 16 0.900029 13.4 2.10003C12.3 2.60003 11.2 3.00003 10.1 3.40003C8.6 3.80003 7 4.30003 5.5 5.00003C4.4 5.50003 3.3 6.00003 2.2 6.50003C-1.60001 8.60003 -5.5 10.6 -9.2 13C-9.3 13.1 -9.4 13.1 -9.4 13.2C-12.4 15.1 -15.6 16.9 -18.5 18.9C-21.2 20.7 -23.6 22.8 -26.2 24.7C-26.6 25 -27.1 25.4 -27.5 25.7C-30.6 27.9 -33.5 30.2 -36.4 32.6C-42.3 37.4 -48.1 42.3 -53.5 47.6C-54.9 48.9 -56.2 50.2 -57.5 51.6C-60.5 54.7 -63.3 57.9 -66.2 61.1C-68.1 63.2 -69.8 65.4 -71.6 67.5C-71.9 67.6 -71.9 68 -72 68.2C-70.8 69.5 -69.7 70.7 -68.5 72C-68.2 72.4 -67.8 72.7 -67.4 73C-65.5 74.5 -63.8 74.2 -62.3 72.3C-61.7 71.5 -61 70.8 -60.3 70.1C-59.7 69.5 -59 68.9 -58.4 68.2C-57 66.8 -55.7 65.3 -54.4 63.8C-54.1 63.5 -53.8 63.3 -53.5 63.2C-51.2 62 -49.1 60.6 -47.5 58.5C-47.3 58.2 -46.9 58.1 -46.5 58C-44.9 57.4 -43.5 56.6 -43 54.7C-42.9 54.1 -42.2 53.6 -41.8 53C-40.5 53.7 -39.4 53.5 -38.5 52.5C-37 50.9 -35.2 49.6 -34.5 47.4C-34.4 47.2 -34.3 47.1 -34.1 46.9C-33.7 46.6 -33.2 46.3 -32.9 47C-32.5 47.8 -31.9 47.6 -31.4 47.3C-30.5 46.7 -29.8 45.8 -28.9 45.2C-27.3 44 -25.7 42.9 -24.2 41.7C-22.9 40.7 -21.7 39.6 -20.7 38.3C-20.3 37.8 -19.5 37.6 -18.9 37.5C-18.6 37.5 -18.2 38 -17.7 38.5C-17.4 38 -16.9 37.5 -16.8 37C-16.7 35.6 -15.7 34.7 -15 33.7C-13.1 33.5 -12 31.8 -10.3 31.2C-9.9 31.5 -9.6 31.8 -9.1 32.2C-9.1 32.2 -9.1 32.2 -9 32.3C-8.7 31.9 -8.2 31.5 -8.2 31.2C-8.3 30.5 -8.1 30 -7.6 29.6C-6.7 28.9 -5.8 28.1 -4.8 27.4C-3.8 26.7 -2.7 26 -1.9 25C-1.8 24.9 -1.7 24.8 -1.7 24.7C-1.6 24.5 -1.39999 24.4 -1.2 24.2C-0.899994 23.9 -0.5 23.6 -0.0999985 23.3C0 23.2 0.200005 23.2 0.400002 23.1C0.700005 23.4 0.899994 23.6 1.2 23.8C2.7 22.9 2.7 22.9 4 22.7C3.7 23.3 3.5 23.8 3.2 24.3C2.7 25.2 2.1 26 1.6 26.8C-0.300003 30.1 -2.1 33.4 -4 36.7C-5.2 38.7 -6.4 40.6 -6.9 42.9C-6.9 43.1 -7 43.3 -7.1 43.5C-7.9 44.7 -8.5 46 -9.1 47.3C-9.7 48.6 -10.2 50 -10.8 51.3C-11.7 53.1 -12.3 55 -12.5 56.9C-13 60.3 -13.4 63.6 -12.7 67C-12.4 68.6 -11.7 70 -10.5 71.1C-9.8 71.8 -9 72.4 -8.3 73.1C-7.3 73.9 -6.3 74.8 -5.3 75.6C-4.60001 76.2 -3.8 76.6 -3.2 77.1C-1.39999 78.8 0.5 79 2.8 77.9C3.8 77.4 4.7 76.8 5.8 76.9C6.10001 76.9 6.39999 77 6.7 77.2C6.89999 77.3 7.10001 77.3 7.3 77.2C9 76.2 11.1 75.8 12.2 74C13 72.7 14.2 71.8 15.6 71.2C16.6 70.7 17.5 70.2 18.6 69.7C19.3 70.5 19.9 71.3 20.7 72.2C21.2 71.6 21.5 71.2 21.9 70.8C22.1 70.5 22.3 70 22.6 70C24 69.8 24.5 68.6 25.2 67.7C25.7 67.1 26.2 66.5 26.9 66.1C27.6 65.7 28.2 65.1 28.8 64.6C29.3 64.2 29.8 63.6 30.4 63.3C31.9 62.6 33.1 61.6 34.2 60.5C35.1 59.6 36.1 58.7 37.5 58.8C37.8 58.8 38.2 58.6 38.5 58.3C39.5 57.5 40.4 56.6 41.4 55.8C41.7 55.6 42.1 55.2 42.4 55.3C43.4 55.6 44.1 54.7 45 54.7C46.8 54.8 48 53.7 49.2 52.7C50.8 51.3 52.2 49.8 53.6 48.2C54.5 47.1 55.3 46 56.6 45.3C57.4 44.9 57.8 44.1 57.6 43.3C57.2 41.9 57.8 40.7 58.5 39.6C59 38.7 59.4 37.6 60.4 37C60.7 36.8 60.7 36.1 59.9 35.9C58.6 37.1 57.3 38.2 56.5 39.9C56.2 40.7 55.4 41.2 54.8 41.9C54.9 41.6 54.9 41.2 55.1 40.9C56 39.3 56.6 37.6 57.8 36.1C58.7 34.9 58.5 34.6 57.1 33.6C56.7 33.4 56.3 33.2 55.7 32.9C56.3 32.3 56.7 31.9 57.1 31.5C58.4 30.3 59.9 29.3 60.9 27.7C61 27.6 60.9 27.3 60.9 27.2C60.6 27.2 60.2 27.1 59.4 27.1C60.1 26.6 60.5 26.2 60.9 26C62.2 25.6 63.5 25.2 64.9 24.9C65.9 24.7 66.6 24.4 66.6 23.2C66.6 23 66.9 22.8 67.2 22.5C67.5 23 67.8 23.5 68 23.9C66.8 25 65.7 26.1 64.5 27.1C63 28.3 62.4 29.9 62.5 31.8C62.6 32.5 62.5 33.2 62.4 33.9C62.1 35.4 61.8 36.9 61.5 38.6C62.1 38.3 62.6 38 63 38C63.4 38 63.9 38.2 64.5 38.3C64.8 37.3 65.4 36.4 65.3 35.7C64.8 34 65.9 33.1 66.8 32.1C67.7 31.1 68.8 30.2 69.8 29.2C69.9 29.1 69.8 28.9 69.8 28.7C69.2 28.8 68.7 28.9 68.1 29C68.2 28 68.2 27.1 68.3 26.2C68.4 25.8 68.6 25.2 69.3 25.4C69.2 26 69.2 26.6 69.2 27.2C69.2 27.3 69.3 27.3 69.5 27.5C70.5 27.2 71.1 26.5 71.5 25.7C71.2 25.2 71 24.8 70.7 24.4C71.2 23.7 71.7 23.1 72.2 22.5C72.7 22.3 73.3 22.2 73.7 21.8C74.5 21.2 75.1 21.3 75.7 21.9C75.8 24.9 74.7 27.3 72.1 28.9C71.6 29.2 70.9 29.5 70.7 30C70 31.6 68.9 32.7 67.6 34.2C68.5 34.6 69.2 34.9 69.9 35.2C69.3 36.6 68.7 37.9 68.2 39.3C67.5 41.2 66.8 43 66.3 45C65.9 47 65.1 48.9 64.2 50.8C64.1 51.1 64 51.4 64 51.7C63.6 54.4 63.2 57.2 62.9 60C62.8 60.5 63 61 63.1 61.5C63.3 62.6 63.5 63.7 63.7 64.7C64.1 66.2 64.5 67.6 65.7 68.6C66.5 69.3 67.5 69.8 68.1 70.8C68.8 72 70.4 71.2 71.4 71.9C71.8 72.2 72.3 72.3 72.7 72.6C74 72.3 75.2 71.9 76.4 71.6C77.8 72.5 78.3 72.6 79.3 72C79.8 71.7 80.2 71.2 80.7 70.9C81.4 70.4 82.2 70 83 69.6C84.8 68.7 86.7 67.8 88.6 66.8C89 66.6 89.5 66.3 89.8 65.9C91.5 63.5 94.2 62.2 96.4 60.4C96.6 60.2 96.9 60 97.2 60C98.7 60.2 99.5 59 100.5 58.3C101.1 57.9 101.8 57.3 102.6 57.2C105.4 56.9 107.4 55.3 109.3 53.6C110.6 52.5 111.8 51.3 113.1 50.2C113.2 50.1 113.5 50.1 113.7 50.1C114 50.4 114.3 50.8 114.8 51.3C115.1 50.8 115.5 50.4 115.5 50C115.4 49 115.8 48.3 116.5 47.6C118.7 45.7 120.7 43.7 123 41.9C124 41.1 124.8 40.4 125 39.1C125.1 38.4 125.3 37.7 126.2 37.6C126.6 37.9 127 38.2 127.5 38.5C127.9 38.1 128.5 37.7 128.7 37.2C129.1 35.6 130.2 34.5 131.1 33.1C131.4 32.7 131.8 32.3 131.8 31.8C131.9 29.9 133.7 29.1 134.5 27.6C134.6 27.4 135.3 27.3 135.6 27.5C135.9 27.6 136.1 28.1 136.1 28.4C136.2 28.7 135.7 29.1 136.1 29.5C137.1 29.7 137.9 29.4 138.1 28.3C138.2 27.8 138.4 27.3 138.3 26.9C138.2 26.2 138.4 25.8 138.8 25.3C139.4 24.4 140.2 24.2 141.2 23.8C142 23.5 142.5 22.4 143.1 21.7C143.2 21.6 143.3 21.6 143.4 21.6C144.4 21.7 145 21 145.8 20.5C147.1 19.8 148.4 18.9 149.7 18.3C150.5 17.9 151.4 17.7 152.3 18.7C152.2 21 152.2 23.5 151.3 25.8C149.1 31.5 146.9 37.1 145 42.9C143 48.9 141.7 54.9 142 61.3C142.2 65.4 144.2 68.2 147.5 70.3C149.1 71.3 150.7 72.4 152.8 72.1C155.3 71.7 157.8 71 160.3 70.5C160.4 70.5 160.5 70.4 160.6 70.4C163.1 69.2 165.3 67.4 167.9 66.5C168.2 66.4 168.4 66 168.7 65.7C169 65.4 169.1 64.9 169.4 64.8C172.2 63.9 174 61.1 177 60.7C177.3 60.7 177.6 60.2 177.9 60C178.3 59.7 178.5 59.1 179 59C181 58.4 182.2 56.8 183.6 55.4C183.9 55.1 184.4 55.1 184.9 55C184.8 55.3 184.7 55.7 184.6 56C185.3 56.3 185.6 55.9 186 55.5C187 54.6 187.9 53.8 188.9 53C190.5 51.6 192.5 50.5 193.7 48.6C193.9 48.4 194.1 48.2 194.4 48C196.7 46.3 199 44.6 201.3 42.8C203 41.5 204.6 40.2 206.2 38.9C207.2 38.1 208.2 37.2 209.1 36.4C209.2 36.3 209.3 36 209.4 35.8C209.1 35.4 208.9 34.9 208.6 34.5C209.2 33 211.1 33 211.7 31.1C211 31.6 210.7 31.9 210.3 32.1C209.9 32.3 209.4 32.4 208.6 32.7C209.6 30.5 210.8 29.6 212.8 29.5C212.8 30.8 212.5 31.9 213.8 33.2C213.2 31.1 215 29.8 214.4 28C214.3 27.8 214.8 27.3 215.1 27.1C215.9 26.5 216.9 26.2 217.6 25.6C218.4 25 219.1 24 220.1 23.6C220.4 23.5 220.7 23.5 221 23.4C221.4 23.7 221.7 24 222.1 24.4C222 24.7 221.8 25.1 221.6 25.8C222.8 25.2 223.7 24.8 224.6 24.4C225.4 24 226.2 23.7 226.8 22.9C227.9 21.5 229.3 21.5 230.8 22.3C231.3 23.4 231.2 24.4 230.9 25.5C230.6 26.6 230.3 27.6 230.2 28.7C230.1 30.3 229.6 31.8 229 33.3C226.8 38.9 226 44.8 225 50.7C224.6 53.3 224.8 55.8 225.1 58.4C225.4 61.7 227.8 63.5 229.7 65.7C229.9 66 230.4 66.1 230.8 66.1C232.4 66.4 233.9 66.7 235.5 66.7C236.9 66.7 238.7 67.1 239.8 65.9C240.8 64.7 242.1 64.4 243.4 64.1C244.7 63.8 245.9 63.6 246.9 62.6C247.3 62.2 248 61.9 248.5 61.9C250.7 61.8 252.3 60.3 254.1 59.4C256 58.5 257.6 56.9 259.3 55.6C259.5 55.4 259.8 55.4 260.1 55.4C260.5 55.9 260.9 56.3 261.4 56.7C262.3 56.1 263.3 55.6 264 55C264.8 54.3 265.2 53.1 266.1 52.5C266.9 51.9 268.1 52.1 269 51.4C271.2 49.7 273.5 48.1 275.7 46.4C276 46.2 276.3 45.8 276.4 45.5C276.7 44.6 277.4 44.4 278.2 44.2C278.5 44.1 278.8 43.7 279 43.5C278.1 43 278 42.7 278.6 42.2C278.9 42 279.2 41.9 279.6 41.7V26.2C279.5 26.2 279.4 26.3 279.3 26.3C278.1 26.3 277.7 26.8 277.3 27ZM2.9 20.7C2.8 20.6 2.7 20.4 2.7 20.3C2.8 20.2 2.9 20.1 3.1 20C3.2 20.1 3.3 20.3 3.3 20.4C3.2 20.5 3.1 20.6 2.9 20.7ZM1.7 18.8C2 16.8 3.39999 16.8 4.7 17C3.8 17.8 3 18.6 1.7 18.8ZM8.6 14.7L8.8 14.6C8.8 14.8 8.6 14.7 8.6 14.7ZM21.1 63.3C20.8 63.5 20.5 63.6 20.1 63.7L20 63.5C20.3 63.2 20.5 63 20.8 62.8C20.8 62.8 21 62.8 21.3 62.8C21.1 63.1 21.1 63.2 21.1 63.3ZM22.6 68.6C22.6 68.5 22.5 68.4 22.5 68.3C22.5 68.3 22.6 68.2 22.7 68.2C22.7 68.3 22.7 68.3 22.8 68.4C22.7 68.5 22.7 68.5 22.6 68.6ZM29 56.5C27.6 55.6 27.6 55.4 29 54.4V56.5ZM36.3 51.2C36.3 51 36.5 51.1 36.5 51.1L36.3 51.2ZM43.9 43.9C44.1 43.9 44.2 43.9 44.4 43.9C44.3 44.1 44.3 44.2 44.2 44.4C44.1 44.3 43.9 44.3 43.8 44.2C43.8 44.1 43.8 43.9 43.9 43.9ZM43.2 48C43.9 46.7 44.5 46 45.6 45.3C45.5 47 44.5 47.2 43.2 48ZM49.4 41C49.3 40.9 49.2 40.7 49 40.5C49.2 40.3 49.3 40.1 49.5 40C49.6 40.2 49.9 40.4 49.9 40.5C49.8 40.7 49.6 40.8 49.4 41ZM49.8 37.3C49.7 37.2 49.5 37.1 49.4 37C49.4 36.9 49.5 36.7 49.7 36.6C49.8 36.6 50 36.7 50.1 36.8C50 37.1 49.9 37.2 49.8 37.3ZM50.7 45.4C50.6 45.4 50.5 45.3 50.5 45.3C50.6 45.2 50.7 45 50.7 44.9C50.8 45 51 45.1 51.1 45.2C50.9 45.2 50.8 45.3 50.7 45.4ZM57 29.5C57 29.4 56.9 29.3 56.9 29.3C57 29.2 57.1 29.1 57.2 29C57.2 29.1 57.3 29.2 57.3 29.2C57.2 29.3 57.1 29.4 57 29.5ZM75.2 21.5C75.5 21.1 75.9 20.7 76.4 20.1C76.4 21.3 75.8 21.4 75.2 21.5ZM73.2 20.6C72.6 21 72.1 21.7 71.6 22.2C70.9 22.4 70.1 22.6 69.3 22.7C69.1 19.7 70.4 18.1 74.2 16.4C74.3 16.8 74.5 17.3 74.7 17.9C75.9 17 76.7 16 77 14.6C77.3 13.2 77.3 13.3 78.6 13.4C79.3 13.5 79.9 13.5 80.7 13.6C80.4 15.2 79.6 16.2 78.4 17C76.6 18.2 74.8 19.3 73.2 20.6ZM126.4 34.1C126.2 34.2 125.9 34.3 125.7 34.4C125.6 34.2 125.5 34 125.5 33.9C125.7 33.7 126 33.5 126.3 33.3C126.4 33.5 126.4 33.6 126.5 33.8C126.5 33.9 126.4 34.1 126.4 34.1ZM184.2 54.5C184.2 53.8 184.5 53.2 185.5 53.3C185.1 53.7 184.6 54.1 184.2 54.5ZM206.3 36.1C206 36.4 205.6 36.5 205.2 36.8C205.1 36.6 204.9 36.5 204.8 36.3C205.1 36 205.4 35.6 205.7 35.3C205.9 35.2 206.2 35.3 206.4 35.3C206.4 35.6 206.5 35.9 206.3 36.1ZM221.3 24C221.1 23.1 221.4 22.5 222.4 22.2C222.4 23 222 23.6 221.3 24ZM222.5 22.2C223 22 223.6 21.8 223.8 22.8C223.3 22.5 222.9 22.3 222.5 22.2ZM229.8 20.1C229.8 20.2 229.6 20.2 229.6 20.2C229.6 20.1 229.6 19.9 229.6 19.8L229.8 19.9C229.8 19.9 229.8 20 229.8 20.1Z" fill="#FCCF35"/>
</svg>
