<svg id="abdde6c5-11e1-44f8-8a8f-25c866b5c03a" data-name="Layer 1" xmlns="http://www.w3.org/2000/svg" width="865.76" height="682.89" viewBox="0 0 865.76 682.89"><polygon points="486.35 518.5 486.35 526.19 488.34 529.11 486.35 539.19 568.94 539.19 568.94 518.5 486.35 518.5" fill="#ccc"/><path d="M193,640.56V586h83.57s-.72,50.22,4,55.67h4.7V587.12h1a2.23,2.23,0,0,0,2.23-2.24v-5.67q-48.85-.4-98.68-.22-68.64.27-135.44,1.68v3.78a2.91,2.91,0,0,0,2.92,2.91v53.2h3.53S65.62,602.8,64.32,587h82.21v53.57h4.28s4.83-33.23,3.47-53.82h30.26q1.72,26.91,3.47,53.82" fill="#ccc"/><path d="M193,640.56V586h83.57s-.72,50.22,4,55.67h4.7V587.12h1a2.23,2.23,0,0,0,2.23-2.24v-5.67q-48.85-.4-98.68-.22-68.64.27-135.44,1.68v3.78a2.91,2.91,0,0,0,2.92,2.91v53.2h3.53S65.62,602.8,64.32,587h82.21v53.57h4.28s4.83-33.23,3.47-53.82h30.26q1.72,26.91,3.47,53.82" fill="#fff" opacity="0.13"/><path d="M78.92,403.59,195.4,405.2l8.17,94.34,1.63,79.17-114.82,2S88.56,431.53,78.92,403.59Z" fill="#ccc"/><path d="M78.92,403.59,195.4,405.2l8.17,94.34,1.63,79.17-114.82,2S88.56,431.53,78.92,403.59Z" opacity="0.2"/><rect x="336.84" y="41.22" width="480.47" height="332.47" rx="7.62" fill="#2f2e41"/><rect x="352.69" y="56.3" width="448.2" height="302.31" fill="#fff"/><rect x="653.6" y="55.95" width="147.3" height="302.31" fill="#ccc"/><rect x="672.54" y="75.59" width="108.72" height="28.76" rx="6.06" fill="#bcbec0"/><rect x="672.54" y="309.74" width="108.72" height="28.76" rx="6.06" fill="#bcbec0"/><circle cx="686.21" cy="133.79" r="13.68" fill="#bcbec0"/><rect x="718.13" y="123.82" width="37.17" height="1.74" fill="#bcbec0"/><rect x="718.13" y="132.92" width="63.13" height="1.74" fill="#bcbec0"/><rect x="718.13" y="142.02" width="63.13" height="1.74" fill="#bcbec0"/><circle cx="686.21" cy="182.2" r="13.68" fill="#bcbec0"/><rect x="718.13" y="172.23" width="37.17" height="1.74" fill="#bcbec0"/><rect x="718.13" y="181.33" width="63.13" height="1.74" fill="#bcbec0"/><rect x="718.13" y="190.43" width="63.13" height="1.74" fill="#bcbec0"/><circle cx="686.21" cy="230.62" r="13.68" fill="#bcbec0"/><rect x="718.13" y="220.65" width="37.17" height="1.74" fill="#bcbec0"/><rect x="718.13" y="229.75" width="63.13" height="1.74" fill="#bcbec0"/><rect x="718.13" y="238.85" width="63.13" height="1.74" fill="#bcbec0"/><circle cx="687.08" cy="279.9" r="13.68" fill="#bcbec0"/><rect x="719" y="269.93" width="37.17" height="1.74" fill="#bcbec0"/><rect x="719" y="279.03" width="63.13" height="1.74" fill="#bcbec0"/><rect x="719" y="288.13" width="63.13" height="1.74" fill="#bcbec0"/><path d="M123.47,301.67s-31.25,19.71-34.79,52.82c0,0-13.2,68.82,9.68,72.54,0,0,12.27,2.6,17.48,1.3,0,0-.93,19.72,6,22.14,0,0,66.22-7.44,82.77-19.35,0,0-15.06-37.94-17.67-61.38,0,0,25,24.75,35.25,22.52l2.44-28.86a1.42,1.42,0,0,1,1-1.16L230,361s-21.38-15.8-32.16-33.47a95.43,95.43,0,0,0-27.72-25.11Z" fill="#FCCF35"/><path d="M114.6,398.63s3.47-26.78,12.4-36.7c0,0,17.11,26,19.59,41.66C146.59,403.59,125,402.6,114.6,398.63Z" opacity="0.2"/><path d="M155.77,403.59s-23.56,1-41.17-5l-11.41,20.09,12.65,9.61s26.78,2.42,39.93,0C155.77,428.33,154.28,407.31,155.77,403.59Z" fill="#FCCF35"/><path d="M172.31,401.61H155.77s-2.74,19.84,1.61,29c0,0,18.23.74,20.46-4.47C177.84,426.16,178.94,412.27,172.31,401.61Z" fill="#FCCF35"/><path d="M172.31,401.61H155.77s-2.74,19.84,1.61,29c0,0,18.23.74,20.46-4.47C177.84,426.16,178.94,412.27,172.31,401.61Z" opacity="0.2"/><path d="M174.29,405.37s18.29-2,28.45,7.85a2.68,2.68,0,0,1-1.67,4.6L184,419a12.54,12.54,0,0,1,2.61,2.26,2.31,2.31,0,0,1-1.46,3.75c-1.56.22-4-.07-7.3-2.29A48.8,48.8,0,0,0,174.29,405.37Z" fill="#f9b499"/><path d="M218.9,430.66l5.67-67.18a1.43,1.43,0,0,1,1-1.26L302,341a.47.47,0,0,1,.59.53l-9.09,58.86a5.22,5.22,0,0,0,.2,2.45l2.81,8.58Z" fill="#d1d3d4"/><polygon points="161.22 450.47 157.38 439.06 220.12 416.14 218.9 430.66 161.22 450.47" fill="#d1d3d4"/><polygon points="161.22 450.47 157.38 439.06 220.12 416.14 218.9 430.66 161.22 450.47" opacity="0.2"/><ellipse cx="263.9" cy="379.08" rx="4.22" ry="6.73" opacity="0.2"/><path d="M121.79,450.47s-4.14,57.36,56.12,48.66c0,0,31.48-6,69.66-30.3,0,0,14.61-8,20.54-2.79,0,0,8.39,6,13.51,12.65a42.6,42.6,0,0,0,13.08,11.37c14.53,8,43,21.23,70.6,19.52,0,0,3.48-1.75,2.78-14.28,0,0-23.72-8-70-51.2,0,0-22.46-20.93-43.44-22.31l-35.72,8.87-57.68,19.81-1.9-5.64Z" fill="#2f2e41"/><path d="M233.64,638.45s-.43-12.82,3.14-17.07c0,0,8.64-7.19,16-5.23,0,0,9.94,10,22.1,13.44a8.65,8.65,0,0,1,4.56,3.06c1.18,1.58,1.8,3.69-.44,5.8Z" fill="#FCCF35"/><rect x="233.64" y="638.45" width="45.38" height="3.22" fill="#2f2e41"/><path d="M368.08,495.3s28.78-27.62,35.12-28.15l-26.13,52.53s-10.56-2.41-12.94-10c0,0,3.5-.89,3.77-6.5Z" fill="#FCCF35"/><polygon points="380.5 522.32 377.07 519.68 403.2 467.15 407.16 468.21 380.5 522.32" fill="#2f2e41"/><path d="M48.46,409.22V574.79a5.87,5.87,0,0,0,5.87,5.88H90.38s1.08-135.46-11.46-177.08l-24.85.3A5.33,5.33,0,0,0,48.46,409.22Z" fill="#ccc"/><path d="M292.41,541.48h2.12a3.53,3.53,0,0,0,3.53-3.52V499.17H172.31v80H289.74a3.18,3.18,0,0,0,3.18-3.23Z" fill="#ccc"/><path d="M292.41,541.48h2.12a3.53,3.53,0,0,0,3.53-3.52V499.17H172.31v80H289.74a3.18,3.18,0,0,0,3.18-3.23Z" opacity="0.2"/><polygon points="361.86 641.67 361.86 542.71 528.33 542.71 528.33 641.67 523.92 641.67 523.92 554.44 365.33 554.44 365.33 641.67 361.86 641.67" fill="#2f2e41"/><rect x="365.33" y="554.44" width="7.32" height="87.23" fill="#2f2e41"/><rect x="365.33" y="554.44" width="7.32" height="87.23" opacity="0.2"/><rect x="473.33" y="554.44" width="7.32" height="87.23" fill="#2f2e41"/><rect x="468.31" y="554.44" width="5.02" height="87.23" fill="#2f2e41"/><rect x="468.31" y="554.44" width="5.02" height="87.23" opacity="0.2"/><polygon points="528.33 641.67 528.33 542.71 642.28 542.71 642.28 641.67 636.09 641.67 636.09 554.44 534.37 554.44 534.37 641.67 528.33 641.67" fill="#2f2e41"/><polygon points="528.33 641.67 528.33 542.71 642.28 542.71 642.28 641.67 636.09 641.67 636.09 554.44 534.37 554.44 534.37 641.67 528.33 641.67" opacity="0.2"/><rect x="630.56" y="554.44" width="6.19" height="87.23" fill="#2f2e41"/><path d="M559.79,515.5h38.32a13.6,13.6,0,0,1,13.6,13.61h0a13.6,13.6,0,0,1-13.6,13.6H559.79a14.67,14.67,0,0,0,0-27.21Z" fill="#bcbec0"/><rect x="496.68" y="500.59" width="101.26" height="14.92" rx="2.44" fill="#2f2e41"/><rect x="510.74" y="500.59" width="5.16" height="14.92" opacity="0.2"/><rect x="579.01" y="500.59" width="5.16" height="14.92" opacity="0.2"/><rect x="351.99" y="55.95" width="151.51" height="151.51" fill="#2f2e41" opacity="0.16"/><rect x="503.5" y="56.3" width="150.8" height="151.32" fill="#2f2e41" opacity="0.25"/><rect x="351.99" y="207.62" width="151.51" height="150.99" fill="#2f2e41" opacity="0.25"/><rect x="503.5" y="207.62" width="150.8" height="150.8" fill="#2f2e41" opacity="0.16"/><path d="M407.29,147.46s-21.67,4.44-24.46,21.06l-11.45,38.93H480s-16.72-48.3-21.67-52.64C458.37,154.81,435.15,137.33,407.29,147.46Z" fill="#FCCF35"/><path d="M413.48,163.79l-4.64,12.09,18.73,31.22h7S410.78,156,412.13,146c0,0-8.25,3.28-7.32,17.21Z" fill="#fff" opacity="0.2"/><path d="M445.06,161.31,449.7,157s-2.38-6.58-6.95-9.81L438.53,146l5.58,6.16-1.84,55.33h4.47s8-31.52,6.69-38.4Z" fill="#fff" opacity="0.2"/><polygon points="427.4 191.12 431.86 162.17 442.94 187.28 442.27 207.45 434.53 207.1 427.4 191.12" fill="#2f2e41"/><path d="M414.91,145.32s6.9,13.5,16.57,14.8c0,0,6.47-3,7-14.16l5.58,6.16-1.17,35.16-11.09-25.11-4.45,29S412.31,158.77,412.13,146c.45-.12.91-.24,1.39-.35Z" fill="#fff"/><path d="M414.91,145.32l1.83-8.45,20.68,1.64,1.11,7.45s.25,10.3-7,14.16C431.48,160.12,423,160.31,414.91,145.32Z" fill="#f9b499"/><path d="M560.16,160.93s-10.37-11.74,0-31c0,0,2.91-5,3.12-16.42,0,0-6.65-25.83,19.33-30.48,0,0,.54-.06,1.46-.09a24.46,24.46,0,0,1,25.09,25.23c-.18,6.75.2,16.13,3.37,19.68,0,0,14.55,23.07,2.5,36.16,0,0-9.32-11.7-19.75-13.09C595.28,151,570.76,145.13,560.16,160.93Z" fill="#2f2e41"/><path d="M545.93,182.2s-3.64,9.19-6.13,4.35c0,0-14-23-13.39-41.45a5.5,5.5,0,0,1,2.06-4.07c1.19-1,2.75-3.12,3.91-7.9a1.34,1.34,0,0,0-1.89-1.51,12.23,12.23,0,0,0-4.1,3.95s4.05-17.87-1.77-17.87c0,0-12.67,7.57-9.35,29.76,0,0,8.73,51.78,16.63,59.64l14,.35A39.07,39.07,0,0,0,558,197.32a33.92,33.92,0,0,1-.52-4.39S552.48,193.09,545.93,182.2Z" fill="#f9b499"/><path d="M618.28,202.44a28.79,28.79,0,0,1,4,5H641s-.83-6-7.89-15.35C633.11,192.1,626.32,199.48,618.28,202.44Z" fill="#f9b499"/><path d="M449.79,276.12s-.76,23.13,1,26.07l-6.33-3.5-2.64-7.32v-5.62a28.67,28.67,0,0,0,5.8-11.11s1.11,1.5,2.19.8Z" fill="#2f2e41"/><path d="M403.77,313.32s7-10.58,17.81-15.58a31.72,31.72,0,0,1,29.19,4.45s24.75,17.59,36.66,56.42H468.38s-12.9-17.14-16.25-19.93c0,0-1.21,17.37-4.18,19.93H413.88s-3.23-8.4-3.6-16.21c0,0-10.23,13.28-15.07,16.21H377S397.07,323.86,403.77,313.32Z" fill="#FCCF35"/><path d="M412.88,324.36s-11.34,6.14-12.27,16.92v12.25s8-8.34,9.67-11.13C410.28,342.4,405.82,335.7,412.88,324.36Z" opacity="0.2"/><path d="M450.08,353.53s-1.48-15.22-3-19.31c0,0,3.16-.38,5,4.46C452.13,338.68,451.39,348.55,450.08,353.53Z" opacity="0.2"/><path d="M537,333.11s8.74,17.69,8,25.5h96.35s-2.6-43.27-39.24-58.05C602.05,300.56,565.78,289.33,537,333.11Z" fill="#FCCF35"/><path d="M543.58,349.64s10.66-6.86,18.29-7.05c0,0-3.16,11.31-2.79,16H544.94A33.07,33.07,0,0,0,543.58,349.64Z" opacity="0.2"/><path d="M604.09,358.61s0-10.54,5.21-14.35c0,0,2.23,12.68,4.46,14.35Z" opacity="0.2"/><path d="M516.36,302.91s-7.44-27.14,7.19-25.6c0,0,3.72.93,3.23,12.77,0,0,1.24,2.29,3.22,0,0,0,3.72-3.16,4.71,0a10.52,10.52,0,0,0-4,5.39s0,5.7-3.72,8.68L537,332.91s9.3,18.3,8,25.7H522.31S519.09,354.24,516.36,302.91Z" fill="#f9b499"/><path d="M415.46,142.77l1.05-4.46,20.65-.83.69,3.9S427.61,156.34,415.46,142.77Z" fill="#f4a790"/><ellipse cx="426.39" cy="121.06" rx="16.55" ry="24.91" fill="#f9b499"/><ellipse cx="410.4" cy="121.11" rx="4.5" ry="6.9" fill="#f9b499"/><ellipse cx="443.25" cy="118.93" rx="4.5" ry="6.9" fill="#f9b499"/><path d="M412.68,115.16s-.38-17.37,11.77-14.74a30.38,30.38,0,0,0,14.09,3.72s2.94,6.28,3.36,8.2a3.7,3.7,0,0,1,4.63,1.87l.07-9.68s7.9,1,1.82-9.86c0,0-6.4-14.28-30.21-11.16,0,0-12.48,4.12-10.67,15.6l.59,16S411.22,113.09,412.68,115.16Z" fill="#2f2e41"/><path d="M560.16,160.93,544,178.59s6.44,13.51,13.51,14.34c0,0-.21,8.94,5.2,10l0,4.71h38.46s.24-18.64,3.77-17l11.23,12.46s7.27-1.24,17-11c0,0-8.52-16-18.08-28.06,0,0-10-12-19.75-13.09C595.28,151,571.8,144.72,560.16,160.93Z" fill="#FCCF35"/><path d="M549.93,187.85s4.83-9.47,12.93-7.39c0,0-6.3,6.81-5.4,12.47C557.46,192.93,553.88,192,549.93,187.85Z" opacity="0.2"/><path d="M601.27,203.09s-11.81-.94-7.44-7.21c0,0,1.45-9.24,0-13.68,0,0,7.54,2.8,9.48,9.16C603.31,191.36,601.43,198.72,601.27,203.09Z" opacity="0.2"/><path d="M576.79,133.79v17.58s-.83,9.35,7.06,5.82L595.28,151V127.88Z" fill="#f9b499"/><path d="M576.79,140.15v-6.36h18.49v6.36S587,146.94,576.79,140.15Z" fill="#f4a790"/><ellipse cx="586.14" cy="117.7" rx="16.42" ry="22.44" fill="#f9b499"/><path d="M414,302.48s3.9-14.61,2.85-27.68a2.41,2.41,0,0,0,2.39.54s1.9,6,4.67,9.35v11.89S416.36,300.53,414,302.48Z" fill="#2f2e41"/><path d="M423.88,300.3V284.19s3.53,5.19,9,5.37a12.27,12.27,0,0,0,9-3.81v11.33l-11.49,12Z" fill="#f9b499"/><path d="M421.49,297.87l.09,5.53,8.11,9.92,14.75-14.63-2.64-7.32v3.78a4.81,4.81,0,0,1-1.33,3.32l-10.16,10.64-6.18-8.47a1.28,1.28,0,0,1-.25-.76v-3.3Z" fill="#FCCF35"/><path d="M421.49,297.87l.09,5.53,8.11,9.92,14.75-14.63-2.64-7.32v3.78a4.81,4.81,0,0,1-1.33,3.32l-10.16,10.64-6.18-8.47a1.28,1.28,0,0,1-.25-.76v-3.3Z" opacity="0.2"/><path d="M423.88,289.84v-6.73H441.8v6.73S430.82,296,423.88,289.84Z" fill="#f4a790"/><ellipse cx="433.31" cy="264.59" rx="15.58" ry="25.25" fill="#f9b499"/><ellipse cx="449.79" cy="269.01" rx="6.56" ry="3.31" transform="translate(129.25 683.66) rotate(-83.18)" fill="#f9b499"/><ellipse cx="417.83" cy="269.01" rx="3.31" ry="6.56" transform="translate(-29.5 52.57) rotate(-6.96)" fill="#f9b499"/><path d="M415,264.59s-10.32-19.16,8.66-28.29c0,0,14.34-9.67,26.15,5.55,0,0,7.48,9.31,2.84,22.74,0,0-.93-3.26-3.77-1.45,0,0-.39-10.37-4.75-16.72,0,0-12.77-4.52-25.39,9.33l-.89,6.84A2.56,2.56,0,0,0,415,264.59Z" fill="#2f2e41"/><ellipse cx="606.65" cy="271.33" rx="3.34" ry="5.98" fill="#f9b499"/><path d="M578.42,289v9.91a11.81,11.81,0,0,0,11.81,11.81h0a11.82,11.82,0,0,0,11.82-11.81V285.86Z" fill="#f9b499"/><path d="M578.42,294.74V289l23.63-1.33v7.07S590.89,306.83,578.42,294.74Z" fill="#f4a790"/><ellipse cx="589.77" cy="272.64" rx="16.23" ry="26.15" fill="#f9b499"/><ellipse cx="572.76" cy="271.33" rx="3.34" ry="5.98" fill="#f9b499"/><path d="M571,266.22V250.09s-7.41-8.24,0-15.71c0,0-1.5,5,9.28,2.84a6.37,6.37,0,0,0,2-.74c2.5-1.43,10.66-5.4,18.62-1.43a16.45,16.45,0,0,1,8.86,15.36l-.6,17s-.62-2.46-3.74-1.67c0,0-2.13-14.28-10.65-15.38a12.33,12.33,0,0,0-1.52-.32,16.46,16.46,0,0,0-18.34,12,37.88,37.88,0,0,0-.84,3.8S572.07,264.47,571,266.22Z" fill="#2f2e41"/><path d="M95.09,502.92v36a3.74,3.74,0,0,0,3.74,3.75h92.43a4.92,4.92,0,0,0,4.92-4.92V504.33a4.91,4.91,0,0,0-4.91-4.92l-92.43-.24A3.75,3.75,0,0,0,95.09,502.92Z" fill="#ccc"/><path d="M96,548.72v28.94a3.32,3.32,0,0,0,3.56,3l87.61-1.46c2.57,0,4.66-1.77,4.66-4V549.85c0-2.18-2.08-3.94-4.65-4l-87.61-.19A3.33,3.33,0,0,0,96,548.72Z" fill="#ccc"/><path d="M236.78,621.38s-16-66.18,6.61-121.21l-65.48-1s38-10.1,69.66-30.3c0,0,13.52-8.56,20.54-2.79,0,0,9,4.87,18.11,17.76,0,0-4.86,41.1-15.31,66.87,0,0-17.76,60.26-18.11,65.48C252.8,616.15,246.88,614.06,236.78,621.38Z" fill="#2f2e41"/><path d="M236.78,621.38s-16-66.18,6.61-121.21l-65.48-1s38-10.1,69.66-30.3c0,0,13.52-8.56,20.54-2.79,0,0,9,4.87,18.11,17.76,0,0-4.86,41.1-15.31,66.87,0,0-17.76,60.26-18.11,65.48C252.8,616.15,246.88,614.06,236.78,621.38Z" opacity="0.2"/><path d="M300.52,364.58s-10.61-3.61-9.8,6.2a10,10,0,0,0,6.54,8.61,5.37,5.37,0,0,0,7.08-3.18,22.34,22.34,0,0,0,1-9.89,4.41,4.41,0,0,0-1.9-3.26,3.74,3.74,0,0,0-1.07-.49s3-6.2-1.4-6.2C300.92,356.37,298.32,358.77,300.52,364.58Z" fill="#f9b499"/><path d="M132.21,262.05V294.6s5.09,13.55,19.07,15.6a9,9,0,0,0,9.7-5.44,21.73,21.73,0,0,0,1.42-9.11l-20.52-27.46-2.11-10.92Z" fill="#f9b499"/><path d="M128.3,298.69s1.3-3.91,3.91-4.09c0,0,7.45,15.77,20.65,15.7,0,0,10,.17,9.54-14.65,0,0,2.73,1.55,4.78,8.81,0,0,4.61,34.22-4.76,46.68C162.42,351.14,146.9,341.66,128.3,298.69Z" fill="#FCCF35"/><path d="M162.42,360.81s-27.79-23.62-38.95-59.14a7.35,7.35,0,0,1,4.83-3s15.59,37.2,34.12,52.45c0,0,11.09-13.1,3.37-50.63a47,47,0,0,1,4.36,1.9S178.49,337.75,162.42,360.81Z" fill="#FCCF35"/><path d="M162.42,360.81s-27.79-23.62-38.95-59.14a7.35,7.35,0,0,1,4.83-3s15.59,37.2,34.12,52.45c0,0,11.09-13.1,3.37-50.63a47,47,0,0,1,4.36,1.9S178.49,337.75,162.42,360.81Z" fill="#fff" opacity="0.2"/><ellipse cx="157.38" cy="259.53" rx="20" ry="32.76" fill="#f9b499"/><path d="M136.11,252.73a116.29,116.29,0,0,0,.26,21.12,25.65,25.65,0,0,0,11.76,18.79,20.12,20.12,0,0,0,19,1.64,14.79,14.79,0,0,0,8.81-10,21.14,21.14,0,0,0,.21-9s-15.63-6.4-19.54-.2c0,0-12.57,2.83-13.09-11.4s.49-20.59.49-20.59,8.93-3.47,10.17-12.65c0,0,13.64,11,28.3,11.09A5.71,5.71,0,0,0,188,234c-1.08-3.3-4-7.74-10.77-13.29,0,0,6,0,3.48-2,0,0-26.63-17.86-41.84-1.24,0,0-18.92-5.71-12.72,36,0,0,.84-7.1,5.49-6.82C131.64,246.65,134.72,246.43,136.11,252.73Z" fill="#2f2e41"/><ellipse cx="131.22" cy="255.54" rx="5.21" ry="8.93" fill="#f9b499"/><path d="M485.21,515.5h73a13.61,13.61,0,0,1,13.61,13.61h0a13.6,13.6,0,0,1-13.61,13.6H485.61a2.7,2.7,0,0,1-2.7-2.7h0a2.7,2.7,0,0,1,2.7-2.71h73a8.61,8.61,0,0,0,8.61-8.6h0a8.62,8.62,0,0,0-8.61-8.61H485.21a2.29,2.29,0,0,1-2.3-2.29h0A2.3,2.3,0,0,1,485.21,515.5Z" fill="#d1d3d4"/></svg>